<svg width="32" height="32" viewBox="0 0 32 32" fill="none" xmlns="http://www.w3.org/2000/svg">
<path d="M25.3333 10.6667H6.66663C4.45329 10.6667 2.66663 12.4533 2.66663 14.6667V22.6667H7.99996V28H24V22.6667H29.3333V14.6667C29.3333 12.4533 27.5466 10.6667 25.3333 10.6667ZM21.3333 25.3333H10.6666V18.6667H21.3333V25.3333ZM25.3333 16C24.6 16 24 15.4 24 14.6667C24 13.9333 24.6 13.3333 25.3333 13.3333C26.0666 13.3333 26.6666 13.9333 26.6666 14.6667C26.6666 15.4 26.0666 16 25.3333 16ZM24 4H7.99996V9.33333H24V4Z" fill="#69B0FF"/>
</svg>
