<svg width="197" height="197" viewBox="0 0 197 197" fill="none" xmlns="http://www.w3.org/2000/svg">
<g clip-path="url(#clip0)">
<path d="M70.6484 61.1722L67.7686 63.7526L35.5091 29.1946C35.5091 29.1946 33.0256 26.4205 35.1128 24.4301C37.7373 21.9202 40.3529 24.8529 40.3529 24.8529L70.6484 61.1722Z" fill="#DCDDDD" stroke="black" stroke-width="0.5314" stroke-miterlimit="10"/>
<path d="M79.6226 69.6796L78.3808 70.3578L46.7643 32.462C46.7643 32.462 44.3864 29.3708 46.3592 27.7239C48.8427 25.6543 51.3614 28.9216 51.3614 28.9216L79.6226 69.6796Z" fill="#DCDDDD" stroke="black" stroke-width="0.5314" stroke-miterlimit="10"/>
<path d="M87.9538 79.1206L87.2405 79.4464L64.4043 37.9398C64.4043 37.9398 62.8455 34.558 65.1441 33.3955C68.0328 31.9336 69.6796 35.5003 69.6796 35.5003L87.9538 79.1206Z" fill="#DCDDDD" stroke="black" stroke-width="0.5314" stroke-miterlimit="10"/>
<path d="M87.4342 69.5916L84.5896 70.6396L72.3481 41.7796C72.3481 41.7796 71.4939 39.4634 73.2376 38.7589C75.4305 37.8694 76.3288 40.3089 76.3288 40.3089L87.4342 69.5916Z" fill="#DCDDDD" stroke="black" stroke-width="0.5314" stroke-miterlimit="10"/>
<path d="M89.9089 68.7813L87.4342 69.5828L76.4169 40.3881C76.4169 40.3881 75.5626 38.0719 77.4297 37.3233C79.7811 36.3722 80.6794 38.8205 80.6794 38.8205L89.9089 68.7813Z" fill="#DCDDDD" stroke="black" stroke-width="0.5314" stroke-miterlimit="10"/>
<path d="M84.4399 74.3473L83.3655 75.1751L56.8657 36.2665C56.8657 36.2665 54.5935 33.3162 56.5751 31.6782C59.0674 29.6086 61.4629 32.7262 61.4629 32.7262L84.4399 74.3473Z" fill="#DCDDDD" stroke="black" stroke-width="0.5314" stroke-miterlimit="10"/>
<path d="M126.475 61.4629L129.355 64.0433L161.614 29.4853C161.614 29.4853 164.098 26.7111 162.01 24.7208C159.386 22.2108 156.77 25.1435 156.77 25.1435L126.475 61.4629Z" fill="#DCDDDD" stroke="black" stroke-width="0.5314" stroke-miterlimit="10"/>
<path d="M117.51 69.9703L118.751 70.6572L150.368 32.7614C150.368 32.7614 152.746 29.6702 150.773 28.0233C148.289 25.9537 145.771 29.2211 145.771 29.2211L117.51 69.9703Z" fill="#DCDDDD" stroke="black" stroke-width="0.5314" stroke-miterlimit="10"/>
<path d="M108.808 80.3007L109.892 79.7458L132.728 38.2304C132.728 38.2304 134.287 34.8486 131.988 33.6861C129.099 32.2242 127.452 35.7909 127.452 35.7909L108.808 80.3007Z" fill="#DCDDDD" stroke="black" stroke-width="0.5314" stroke-miterlimit="10"/>
<path d="M112.683 74.6467L113.758 75.4745L140.258 36.5571C140.258 36.5571 142.53 33.6069 140.548 31.9688C138.056 29.8992 135.66 33.0168 135.66 33.0168L112.683 74.6467Z" fill="#DCDDDD" stroke="black" stroke-width="0.5314" stroke-miterlimit="10"/>
<path d="M101.217 51.4759L98.4163 51.4231L98.4339 4.14801C98.4339 4.14801 98.5132 0.43153 101.393 0.396303C105.021 0.352268 104.933 4.28012 104.933 4.28012L101.217 51.4759Z" fill="#DCDDDD" stroke="black" stroke-width="0.5314" stroke-miterlimit="10"/>
<path d="M103.04 63.8407H100.028L104.431 14.223C104.431 14.223 104.801 10.3392 107.373 10.4889C110.605 10.6739 110.209 14.7691 110.209 14.7691L103.04 63.8407Z" fill="#DCDDDD" stroke="black" stroke-width="0.5314" stroke-miterlimit="10"/>
<path d="M102.679 76.4257L101.93 76.1791L113.573 30.2515C113.573 30.2515 114.735 26.7199 117.21 27.4333C120.319 28.3316 119.086 32.0657 119.086 32.0657L102.679 76.4257Z" fill="#DCDDDD" stroke="black" stroke-width="0.5314" stroke-miterlimit="10"/>
<path d="M108.808 69.1072L106.008 67.9359L116.761 38.4858C116.761 38.4858 117.712 36.2137 119.473 36.883C121.684 37.7285 120.671 40.1239 120.671 40.1239L108.808 69.1072Z" fill="#DCDDDD" stroke="black" stroke-width="0.5314" stroke-miterlimit="10"/>
<path d="M112.683 70.9214L108.8 69.1072L120.689 40.2472C120.689 40.2472 121.64 37.975 123.525 38.6972C125.894 39.6043 124.881 42.0086 124.881 42.0086L112.683 70.9214Z" fill="#DCDDDD" stroke="black" stroke-width="0.5314" stroke-miterlimit="10"/>
<path d="M103.366 70.5427L102.018 70.4106L109.214 23.8841C109.214 23.8841 109.566 20.1764 112.137 20.3262C115.369 20.5111 114.991 24.4301 114.991 24.4301L103.366 70.5427Z" fill="#DCDDDD" stroke="black" stroke-width="0.5314" stroke-miterlimit="10"/>
<path d="M95.8359 51.3262L98.6365 51.2734L98.6189 3.99829C98.6189 3.99829 98.5396 0.281811 95.6598 0.246583C92.0314 0.202549 92.1194 4.1304 92.1194 4.1304L95.8359 51.3262Z" fill="#DCDDDD" stroke="black" stroke-width="0.5314" stroke-miterlimit="10"/>
<path d="M94.0129 63.6822H97.0248L92.6214 14.0645C92.6214 14.0645 92.2515 10.1807 89.68 10.3304C86.4478 10.5154 86.8442 14.6105 86.8442 14.6105L94.0129 63.6822Z" fill="#DCDDDD" stroke="black" stroke-width="0.5314" stroke-miterlimit="10"/>
<path d="M93.0265 76.866L95.1226 76.0205L83.4711 30.1017C83.4711 30.1017 82.3086 26.5702 79.8339 27.2836C76.7251 28.1819 78.4248 31.9159 78.4248 31.9159L93.0265 76.866Z" fill="#DCDDDD" stroke="black" stroke-width="0.5314" stroke-miterlimit="10"/>
<path d="M93.6783 70.3842L95.0257 70.2521L87.8305 23.7256C87.8305 23.7256 87.4783 20.0179 84.9067 20.1676C81.6745 20.3526 82.0532 24.2716 82.0532 24.2716L93.6783 70.3842Z" fill="#DCDDDD" stroke="black" stroke-width="0.5314" stroke-miterlimit="10"/>
<path d="M126.475 135.828L129.355 133.247L161.614 167.805C161.614 167.805 164.098 170.579 162.01 172.57C159.386 175.08 156.77 172.147 156.77 172.147L126.475 135.828Z" fill="#DCDDDD" stroke="black" stroke-width="0.5314" stroke-miterlimit="10"/>
<path d="M117.51 127.32L118.751 126.633L150.368 164.529C150.368 164.529 152.746 167.62 150.773 169.267C148.289 171.337 145.771 168.07 145.771 168.07L117.51 127.32Z" fill="#DCDDDD" stroke="black" stroke-width="0.5314" stroke-miterlimit="10"/>
<path d="M109.178 117.871L109.892 117.545L132.728 159.06C132.728 159.06 134.287 162.442 131.988 163.604C129.099 165.066 127.452 161.5 127.452 161.5L109.178 117.871Z" fill="#DCDDDD" stroke="black" stroke-width="0.5314" stroke-miterlimit="10"/>
<path d="M109.698 127.408L112.542 126.36L124.784 155.22C124.784 155.22 125.638 157.537 123.894 158.241C121.702 159.131 120.803 156.691 120.803 156.691L109.698 127.408Z" fill="#DCDDDD" stroke="black" stroke-width="0.5314" stroke-miterlimit="10"/>
<path d="M107.223 128.21L109.698 127.408L120.715 156.612C120.715 156.612 121.569 158.928 119.702 159.685C117.351 160.637 116.453 158.188 116.453 158.188L107.223 128.21Z" fill="#DCDDDD" stroke="black" stroke-width="0.5314" stroke-miterlimit="10"/>
<path d="M112.683 122.644L113.758 121.816L140.258 160.733C140.258 160.733 142.53 163.684 140.548 165.322C138.056 167.391 135.66 164.274 135.66 164.274L112.683 122.644Z" fill="#DCDDDD" stroke="black" stroke-width="0.5314" stroke-miterlimit="10"/>
<path d="M70.6484 135.528L67.7686 132.948L35.5091 167.506C35.5091 167.506 33.0256 170.28 35.1128 172.27C37.7373 174.78 40.3529 171.848 40.3529 171.848L70.6484 135.528Z" fill="#DCDDDD" stroke="black" stroke-width="0.5314" stroke-miterlimit="10"/>
<path d="M79.6226 127.03L78.3808 126.343L46.7643 164.239C46.7643 164.239 44.3864 167.33 46.3592 168.977C48.8427 171.046 51.3614 167.779 51.3614 167.779L79.6226 127.03Z" fill="#DCDDDD" stroke="black" stroke-width="0.5314" stroke-miterlimit="10"/>
<path d="M88.3237 116.69L87.2405 117.245L64.4043 158.761C64.4043 158.761 62.8455 162.143 65.1441 163.305C68.0328 164.767 69.6796 161.2 69.6796 161.2L88.3237 116.69Z" fill="#DCDDDD" stroke="black" stroke-width="0.5314" stroke-miterlimit="10"/>
<path d="M84.4399 122.353L83.3655 121.525L56.8657 160.443C56.8657 160.443 54.5935 163.393 56.5751 165.031C59.0674 167.101 61.4629 163.983 61.4629 163.983L84.4399 122.353Z" fill="#DCDDDD" stroke="black" stroke-width="0.5314" stroke-miterlimit="10"/>
<path d="M95.9152 145.515L98.7158 145.568L98.6981 192.843C98.6981 192.843 98.6189 196.56 95.7391 196.595C92.1106 196.639 92.1987 192.711 92.1987 192.711L95.9152 145.515Z" fill="#DCDDDD" stroke="black" stroke-width="0.5314" stroke-miterlimit="10"/>
<path d="M94.0922 133.159H97.1041L92.7007 182.777C92.7007 182.777 92.3308 186.661 89.7592 186.511C86.5271 186.326 86.9234 182.231 86.9234 182.231L94.0922 133.159Z" fill="#DCDDDD" stroke="black" stroke-width="0.5314" stroke-miterlimit="10"/>
<path d="M94.4533 120.565L95.2018 120.812L83.5592 166.74C83.5592 166.74 82.3967 170.271 79.922 169.558C76.8132 168.66 78.0461 164.926 78.0461 164.926L94.4533 120.565Z" fill="#DCDDDD" stroke="black" stroke-width="0.5314" stroke-miterlimit="10"/>
<path d="M88.3237 127.893L91.1243 129.064L80.3711 158.514C80.3711 158.514 79.42 160.786 77.6586 160.117C75.4481 159.272 76.4609 156.876 76.4609 156.876L88.3237 127.893Z" fill="#DCDDDD" stroke="black" stroke-width="0.5314" stroke-miterlimit="10"/>
<path d="M84.4399 126.079L88.3237 127.893L76.4345 156.753C76.4345 156.753 75.4833 159.025 73.5987 158.303C71.2296 157.396 72.2424 154.991 72.2424 154.991L84.4399 126.079Z" fill="#DCDDDD" stroke="black" stroke-width="0.5314" stroke-miterlimit="10"/>
<path d="M93.7575 126.448L95.105 126.581L87.9098 173.107C87.9098 173.107 87.5575 176.815 84.9859 176.665C81.7538 176.48 82.1325 172.561 82.1325 172.561L93.7575 126.448Z" fill="#DCDDDD" stroke="black" stroke-width="0.5314" stroke-miterlimit="10"/>
<path d="M101.296 145.674L98.4956 145.727L98.5132 193.002C98.5132 193.002 98.5925 196.718 101.472 196.753C105.101 196.797 105.013 192.87 105.013 192.87L101.296 145.674Z" fill="#DCDDDD" stroke="black" stroke-width="0.5314" stroke-miterlimit="10"/>
<path d="M103.119 133.318H100.107L104.511 182.935C104.511 182.935 104.881 186.819 107.452 186.67C110.684 186.485 110.288 182.389 110.288 182.389L103.119 133.318Z" fill="#DCDDDD" stroke="black" stroke-width="0.5314" stroke-miterlimit="10"/>
<path d="M104.106 120.125L102.01 120.971L113.652 166.898C113.652 166.898 114.815 170.43 117.289 169.716C120.398 168.818 118.698 165.084 118.698 165.084L104.106 120.125Z" fill="#DCDDDD" stroke="black" stroke-width="0.5314" stroke-miterlimit="10"/>
<path d="M103.454 126.607L102.106 126.739L109.302 173.266C109.302 173.266 109.654 176.973 112.225 176.824C115.458 176.639 115.079 172.72 115.079 172.72L103.454 126.607Z" fill="#DCDDDD" stroke="black" stroke-width="0.5314" stroke-miterlimit="10"/>
<path d="M135.828 70.5867L133.247 67.7069L167.805 35.4475C167.805 35.4475 170.579 32.964 172.57 35.0512C175.08 37.6756 172.147 40.2912 172.147 40.2912L135.828 70.5867Z" fill="#DCDDDD" stroke="black" stroke-width="0.5314" stroke-miterlimit="10"/>
<path d="M127.32 79.5521L126.633 78.3103L164.529 46.6938C164.529 46.6938 167.62 44.316 169.267 46.2887C171.337 48.7722 168.07 51.291 168.07 51.291L127.32 79.5521Z" fill="#DCDDDD" stroke="black" stroke-width="0.5314" stroke-miterlimit="10"/>
<path d="M117.871 87.8834L117.545 87.17L159.06 64.3339C159.06 64.3339 162.442 62.7751 163.605 65.0737C165.066 67.9623 161.5 69.6092 161.5 69.6092L117.871 87.8834Z" fill="#DCDDDD" stroke="black" stroke-width="0.5314" stroke-miterlimit="10"/>
<path d="M127.408 87.3637L126.36 84.5191L155.22 72.2776C155.22 72.2776 157.537 71.4234 158.241 73.1671C159.131 75.36 156.691 76.2583 156.691 76.2583L127.408 87.3637Z" fill="#DCDDDD" stroke="black" stroke-width="0.5314" stroke-miterlimit="10"/>
<path d="M128.21 89.8473L127.408 87.3726L156.612 76.3552C156.612 76.3552 158.928 75.5009 159.685 77.368C160.637 79.7194 158.188 80.6177 158.188 80.6177L128.21 89.8473Z" fill="#DCDDDD" stroke="black" stroke-width="0.5314" stroke-miterlimit="10"/>
<path d="M122.644 84.3782L121.816 83.3038L160.733 56.804C160.733 56.804 163.684 54.5319 165.322 56.5134C167.391 59.0057 164.274 61.4012 164.274 61.4012L122.644 84.3782Z" fill="#DCDDDD" stroke="black" stroke-width="0.5314" stroke-miterlimit="10"/>
<path d="M135.528 126.413L132.948 129.293L167.506 161.552C167.506 161.552 170.28 164.036 172.27 161.949C174.78 159.324 171.848 156.709 171.848 156.709L135.528 126.413Z" fill="#DCDDDD" stroke="black" stroke-width="0.5314" stroke-miterlimit="10"/>
<path d="M127.03 117.439L126.343 118.681L164.239 150.297C164.239 150.297 167.33 152.675 168.977 150.702C171.046 148.219 167.779 145.7 167.779 145.7L127.03 117.439Z" fill="#DCDDDD" stroke="black" stroke-width="0.5314" stroke-miterlimit="10"/>
<path d="M116.691 108.738L117.245 109.821L158.761 132.657C158.761 132.657 162.143 134.216 163.305 131.917C164.767 129.029 161.2 127.382 161.2 127.382L116.691 108.738Z" fill="#DCDDDD" stroke="black" stroke-width="0.5314" stroke-miterlimit="10"/>
<path d="M122.353 112.622L121.525 113.696L160.443 140.196C160.443 140.196 163.393 142.468 165.031 140.487C167.101 137.994 163.983 135.599 163.983 135.599L122.353 112.622Z" fill="#DCDDDD" stroke="black" stroke-width="0.5314" stroke-miterlimit="10"/>
<path d="M145.515 101.146L145.568 98.3459L192.843 98.3635C192.843 98.3635 196.56 98.4428 196.595 101.323C196.639 104.951 192.711 104.863 192.711 104.863L145.515 101.146Z" fill="#DCDDDD" stroke="black" stroke-width="0.5314" stroke-miterlimit="10"/>
<path d="M133.159 102.969V99.9575L182.777 104.361C182.777 104.361 186.661 104.731 186.511 107.302C186.326 110.535 182.231 110.138 182.231 110.138L133.159 102.969Z" fill="#DCDDDD" stroke="black" stroke-width="0.5314" stroke-miterlimit="10"/>
<path d="M120.566 102.608L120.812 101.86L166.74 113.502C166.74 113.502 170.271 114.665 169.558 117.14C168.66 120.248 164.926 119.016 164.926 119.016L120.566 102.608Z" fill="#DCDDDD" stroke="black" stroke-width="0.5314" stroke-miterlimit="10"/>
<path d="M127.893 108.738L129.064 105.937L158.514 116.69C158.514 116.69 160.786 117.642 160.117 119.403C159.272 121.614 156.876 120.601 156.876 120.601L127.893 108.738Z" fill="#DCDDDD" stroke="black" stroke-width="0.5314" stroke-miterlimit="10"/>
<path d="M126.079 112.622L127.893 108.738L156.753 120.627C156.753 120.627 159.025 121.578 158.303 123.463C157.396 125.832 154.991 124.819 154.991 124.819L126.079 112.622Z" fill="#DCDDDD" stroke="black" stroke-width="0.5314" stroke-miterlimit="10"/>
<path d="M126.448 103.304L126.581 101.957L173.107 109.152C173.107 109.152 176.815 109.504 176.665 112.076C176.48 115.308 172.561 114.929 172.561 114.929L126.448 103.304Z" fill="#DCDDDD" stroke="black" stroke-width="0.5314" stroke-miterlimit="10"/>
<path d="M145.674 95.7655L145.727 98.566L193.002 98.5484C193.002 98.5484 196.718 98.4692 196.753 95.5893C196.797 91.9609 192.87 92.049 192.87 92.049L145.674 95.7655Z" fill="#DCDDDD" stroke="black" stroke-width="0.5314" stroke-miterlimit="10"/>
<path d="M133.318 93.9424V96.9544L182.935 92.551C182.935 92.551 186.819 92.1811 186.67 89.6095C186.485 86.3774 182.389 86.7737 182.389 86.7737L133.318 93.9424Z" fill="#DCDDDD" stroke="black" stroke-width="0.5314" stroke-miterlimit="10"/>
<path d="M120.125 92.9561L120.971 95.0521L166.898 83.4095C166.898 83.4095 170.43 82.247 169.716 79.7722C168.818 76.6634 165.084 78.3632 165.084 78.3632L120.125 92.9561Z" fill="#DCDDDD" stroke="black" stroke-width="0.5314" stroke-miterlimit="10"/>
<path d="M126.607 93.6166L126.739 94.9641L173.266 87.7689C173.266 87.7689 176.973 87.4166 176.824 84.845C176.639 81.6129 172.72 81.9916 172.72 81.9916L126.607 93.6166Z" fill="#DCDDDD" stroke="black" stroke-width="0.5314" stroke-miterlimit="10"/>
<path d="M61.1722 126.413L63.7526 129.293L29.1946 161.552C29.1946 161.552 26.4205 164.036 24.4301 161.949C21.9202 159.324 24.8529 156.709 24.8529 156.709L61.1722 126.413Z" fill="#DCDDDD" stroke="black" stroke-width="0.5314" stroke-miterlimit="10"/>
<path d="M69.6797 117.439L70.3666 118.681L32.4708 150.297C32.4708 150.297 29.3796 152.675 27.7327 150.702C25.6631 148.219 28.9304 145.7 28.9304 145.7L69.6797 117.439Z" fill="#DCDDDD" stroke="black" stroke-width="0.5314" stroke-miterlimit="10"/>
<path d="M79.1206 109.108L79.4464 109.821L37.931 132.657C37.931 132.657 34.5492 134.216 33.3867 131.917C31.9248 129.029 35.4915 127.382 35.4915 127.382L79.1206 109.108Z" fill="#DCDDDD" stroke="black" stroke-width="0.5314" stroke-miterlimit="10"/>
<path d="M69.5916 109.627L70.6396 112.472L41.7796 124.714C41.7796 124.714 39.4634 125.568 38.7589 123.824C37.8694 121.631 40.3089 120.733 40.3089 120.733L69.5916 109.627Z" fill="#DCDDDD" stroke="black" stroke-width="0.5314" stroke-miterlimit="10"/>
<path d="M68.7813 107.153L69.5828 109.627L40.3793 120.645C40.3793 120.645 38.0631 121.499 37.3145 119.632C36.3634 117.281 38.8117 116.382 38.8117 116.382L68.7813 107.153Z" fill="#DCDDDD" stroke="black" stroke-width="0.5314" stroke-miterlimit="10"/>
<path d="M74.3473 112.622L75.1751 113.696L36.2577 140.196C36.2577 140.196 33.3074 142.468 31.6694 140.487C29.5998 137.994 32.7174 135.599 32.7174 135.599L74.3473 112.622Z" fill="#DCDDDD" stroke="black" stroke-width="0.5314" stroke-miterlimit="10"/>
<path d="M61.4629 70.5867L64.0433 67.7069L29.4941 35.4475C29.4941 35.4475 26.7199 32.964 24.7296 35.0512C22.2196 37.6756 25.1523 40.2912 25.1523 40.2912L61.4629 70.5867Z" fill="#DCDDDD" stroke="black" stroke-width="0.5314" stroke-miterlimit="10"/>
<path d="M69.9703 79.5521L70.6572 78.3103L32.7614 46.6938C32.7614 46.6938 29.6702 44.316 28.0233 46.2887C25.9537 48.7722 29.2211 51.291 29.2211 51.291L69.9703 79.5521Z" fill="#DCDDDD" stroke="black" stroke-width="0.5314" stroke-miterlimit="10"/>
<path d="M80.3007 88.2532L79.7459 87.17L38.2305 64.3339C38.2305 64.3339 34.8486 62.7751 33.6861 65.0737C32.2242 67.9623 35.791 69.6092 35.791 69.6092L80.3007 88.2532Z" fill="#DCDDDD" stroke="black" stroke-width="0.5314" stroke-miterlimit="10"/>
<path d="M74.6467 84.3782L75.4745 83.3038L36.5572 56.804C36.5572 56.804 33.6069 54.5319 31.9688 56.5134C29.8992 59.0057 33.0168 61.4012 33.0168 61.4012L74.6467 84.3782Z" fill="#DCDDDD" stroke="black" stroke-width="0.5314" stroke-miterlimit="10"/>
<path d="M51.4759 95.8447L51.4231 98.6453L4.14802 98.6365C4.14802 98.6365 0.431534 98.5572 0.396306 95.6774C0.352272 92.049 4.28012 92.137 4.28012 92.137L51.4759 95.8447Z" fill="#DCDDDD" stroke="black" stroke-width="0.5314" stroke-miterlimit="10"/>
<path d="M63.8407 94.0305V97.0424L14.223 92.639C14.223 92.639 10.3392 92.2691 10.4889 89.6976C10.6739 86.4655 14.7691 86.8618 14.7691 86.8618L63.8407 94.0305Z" fill="#DCDDDD" stroke="black" stroke-width="0.5314" stroke-miterlimit="10"/>
<path d="M76.4257 94.3828L76.1791 95.1314L30.2515 83.4887C30.2515 83.4887 26.7199 82.3262 27.4333 79.8515C28.3316 76.7427 32.0657 77.9757 32.0657 77.9757L76.4257 94.3828Z" fill="#DCDDDD" stroke="black" stroke-width="0.5314" stroke-miterlimit="10"/>
<path d="M69.1072 88.2532L67.9359 91.0538L38.4859 80.3007C38.4859 80.3007 36.2137 79.3495 36.883 77.5882C37.7285 75.3776 40.1239 76.3904 40.1239 76.3904L69.1072 88.2532Z" fill="#DCDDDD" stroke="black" stroke-width="0.5314" stroke-miterlimit="10"/>
<path d="M70.9214 84.3782L69.1072 88.262L40.2472 76.3728C40.2472 76.3728 37.9751 75.4217 38.6972 73.537C39.6043 71.168 42.0086 72.1808 42.0086 72.1808L70.9214 84.3782Z" fill="#DCDDDD" stroke="black" stroke-width="0.5314" stroke-miterlimit="10"/>
<path d="M70.5427 93.6959L70.4106 95.0433L23.8841 87.8481C23.8841 87.8481 20.1764 87.4959 20.3262 84.9243C20.5111 81.6922 24.4301 82.0709 24.4301 82.0709L70.5427 93.6959Z" fill="#DCDDDD" stroke="black" stroke-width="0.5314" stroke-miterlimit="10"/>
<path d="M51.3262 101.226L51.2734 98.4251L3.9983 98.4427C3.9983 98.4427 0.281818 98.522 0.246591 101.402C0.202557 105.03 4.1304 104.942 4.1304 104.942L51.3262 101.226Z" fill="#DCDDDD" stroke="black" stroke-width="0.5314" stroke-miterlimit="10"/>
<path d="M63.6822 103.049V100.037L14.0645 104.44C14.0645 104.44 10.1807 104.81 10.3304 107.382C10.5154 110.614 14.6105 110.217 14.6105 110.217L63.6822 103.049Z" fill="#DCDDDD" stroke="black" stroke-width="0.5314" stroke-miterlimit="10"/>
<path d="M76.866 104.035L76.0206 101.939L30.0929 113.582C30.0929 113.582 26.5614 114.744 27.2748 117.219C28.1731 120.328 31.9071 118.628 31.9071 118.628L76.866 104.035Z" fill="#DCDDDD" stroke="black" stroke-width="0.5314" stroke-miterlimit="10"/>
<path d="M70.3842 103.383L70.2521 102.036L23.7256 109.231C23.7256 109.231 20.0179 109.583 20.1676 112.155C20.3526 115.387 24.2716 115.008 24.2716 115.008L70.3842 103.383Z" fill="#DCDDDD" stroke="black" stroke-width="0.5314" stroke-miterlimit="10"/>
<path d="M68.0944 111.917L63.1009 82.0973L61.868 82.2998L61.8768 82.3263H60.9697L60.9785 82.2998L59.7455 82.0973L54.7697 111.838H54.7433C54.7433 114.859 57.72 117.307 61.3924 117.307C65.0296 117.307 67.9799 114.903 68.0416 111.926L68.0944 111.917ZM56.0291 111.838L60.7231 83.8234V111.838H56.0291ZM61.9649 111.838V82.8811L66.8086 111.838H61.9649Z" fill="#DCDDDD"/>
<path d="M142.23 111.917L137.237 82.0973L136.004 82.2998L136.013 82.3263H135.106L135.114 82.2998L133.881 82.0973L128.906 111.838H128.879C128.879 114.859 131.856 117.307 135.528 117.307C139.166 117.307 142.116 114.903 142.177 111.926L142.23 111.917ZM130.165 111.838L134.859 83.8234V111.838H130.165ZM136.101 111.838V82.8811L140.945 111.838H136.101Z" fill="#DCDDDD"/>
<path d="M98.4956 153.873C129.08 153.873 153.873 129.08 153.873 98.4956C153.873 67.9115 129.08 43.1182 98.4956 43.1182C67.9115 43.1182 43.1182 67.9115 43.1182 98.4956C43.1182 129.08 67.9115 153.873 98.4956 153.873Z" fill="#DCDDDD" stroke="black" stroke-width="0.5251" stroke-miterlimit="10"/>
<path d="M98.4956 152.517C128.331 152.517 152.517 128.331 152.517 98.4956C152.517 68.6606 128.331 44.4745 98.4956 44.4745C68.6606 44.4745 44.4745 68.6606 44.4745 98.4956C44.4745 128.331 68.6606 152.517 98.4956 152.517Z" fill="#326093"/>
<path d="M88.1123 79.8868C87.9802 79.7987 87.7953 79.737 87.5839 79.6842C87.7424 79.4112 87.8305 79.1294 87.8569 78.8211C87.8746 78.5833 87.8481 78.3103 87.7777 78.0021L87.5047 78.0725C87.4166 78.099 87.3285 78.1254 87.2405 78.1606C87.2317 78.1606 87.1964 78.0725 87.1524 77.914C87.1084 77.7555 87.0907 77.6674 87.0996 77.6586C87.17 77.6498 87.2669 77.6234 87.3726 77.597L87.6456 77.5177L87.3902 76.5842L87.17 76.6458C87.1172 76.6635 87.0467 76.6811 86.9498 76.7163C86.941 76.7163 86.9058 76.637 86.8618 76.4697C86.8177 76.3112 86.8001 76.2231 86.8089 76.2055C86.9851 76.1703 87.1964 76.1174 87.4342 76.0558L88.0595 75.8796L88.6848 75.7035C88.8697 75.6507 89.0811 75.589 89.3101 75.5098C89.3277 75.5186 89.3541 75.6066 89.3981 75.7652C89.4422 75.9237 89.4598 76.0117 89.451 76.0206C89.3893 76.0294 89.3189 76.047 89.2572 76.0646L89.0635 76.1174L89.3189 77.051L89.5743 76.9805C89.6359 76.9629 89.7152 76.9365 89.8297 76.9012C89.8385 76.9012 89.8649 76.9805 89.9177 77.1478C89.9618 77.3064 89.9794 77.3944 89.9706 77.4032C89.8825 77.4208 89.8033 77.4385 89.7152 77.4649L89.4598 77.5353L89.7064 78.4248C89.8121 78.7947 89.9089 79.0853 89.997 79.2967C89.9794 79.3143 89.8649 79.3583 89.6623 79.4112C89.4598 79.464 89.3453 79.4904 89.3101 79.4816C89.2837 79.2527 89.2132 78.9532 89.1075 78.5833L88.8609 77.6939L88.3413 77.8348C88.4382 78.2223 88.4734 78.5569 88.447 78.8564C88.4206 79.2262 88.3149 79.5697 88.1123 79.8868ZM88.2092 77.3592L88.72 77.2183L88.4646 76.2848L87.9538 76.4257L88.0859 76.8924L88.2092 77.3592ZM90.6399 77.9757C90.4462 78.0285 90.3405 78.0549 90.3141 78.0461C90.2964 77.8964 90.2524 77.7027 90.182 77.4561L90.0146 76.866L89.8473 76.276C89.7768 76.0382 89.7152 75.8356 89.6447 75.6859C89.7856 75.6419 89.9354 75.5978 90.0851 75.5714C90.2788 75.5274 90.3757 75.5274 90.3845 75.545C90.3405 75.7035 90.3317 75.8532 90.3757 75.9853L90.6399 76.9365C90.7456 77.3064 90.8513 77.6234 90.957 77.87C90.9481 77.8788 90.8425 77.9228 90.6399 77.9757ZM91.0626 79.0413C90.9746 78.8652 90.8689 78.7066 90.7368 78.5833C90.9305 78.5393 91.1419 78.4777 91.3885 78.4072C91.4325 78.3984 91.4677 78.3808 91.4854 78.3632C91.503 78.3456 91.503 78.3191 91.4942 78.2839L90.9481 76.3024C90.7984 75.7828 90.6663 75.36 90.5342 75.043C90.7016 74.9902 90.8601 74.9461 91.0274 74.9109C91.23 74.8669 91.3356 74.858 91.3356 74.8845C91.2916 75.043 91.2828 75.1927 91.3268 75.3248L91.6527 76.5049L92.1018 78.1342C92.1371 78.2751 92.1547 78.3896 92.1371 78.4689C92.1195 78.5569 92.0666 78.6274 91.9874 78.6978C91.8288 78.7947 91.5206 78.9092 91.0626 79.0413Z" fill="#DCDDDD"/>
<path d="M95.3163 78.3456C95.2811 78.2223 95.2018 78.0902 95.0785 77.9493C95.2459 77.9404 95.466 77.9316 95.7303 77.914C95.7831 77.9052 95.8095 77.8964 95.8271 77.8788C95.8447 77.8612 95.8536 77.8348 95.8447 77.7995L95.8359 77.6674L95.0345 77.7291C94.7615 77.7467 94.4973 77.7731 94.2331 77.8083C94.2243 77.7907 94.2067 77.7203 94.1979 77.597C94.1891 77.4649 94.1891 77.3944 94.1979 77.3856C94.4004 77.3856 94.6646 77.3768 94.9993 77.3504L95.8007 77.2887L95.7831 77.0862L94.7351 77.1566C94.4004 77.1831 94.057 77.2183 93.6959 77.2623C93.6871 77.2447 93.6695 77.1654 93.6606 77.0333C93.6518 76.9012 93.6518 76.822 93.6606 76.8132C93.8368 76.8132 94.0041 76.8044 94.1803 76.7956L94.6999 76.7603L95.7479 76.6899L95.7303 76.5049L94.9464 76.5578C94.6822 76.5754 94.4268 76.6018 94.1714 76.637C94.1626 76.6194 94.145 76.5578 94.1362 76.4345C94.1274 76.3112 94.1274 76.2495 94.1362 76.2319C94.33 76.2319 94.5942 76.2231 94.92 76.2055L95.7038 76.1527L95.6862 75.9589L94.2595 76.0646L94.2243 75.6331C94.2155 75.4833 94.1979 75.3424 94.1714 75.2015C94.1714 75.1839 94.1802 75.1751 94.1891 75.1751C94.374 75.1751 94.603 75.1751 94.9024 75.1487L95.6158 75.0958L95.607 74.9197L94.6206 74.9902C94.3124 75.0166 93.9865 75.043 93.643 75.0958C93.6342 75.0782 93.6166 74.999 93.6078 74.8581C93.599 74.7171 93.599 74.6379 93.6078 74.6203C93.872 74.6203 94.1979 74.6115 94.5942 74.585L95.5805 74.5146L95.5717 74.3737C95.5717 74.3385 95.5629 74.2856 95.5541 74.2152C95.7038 74.1975 95.8536 74.1887 96.0033 74.1887C96.197 74.1887 96.2939 74.1975 96.2939 74.224C96.241 74.2592 96.2146 74.3032 96.2146 74.3473L96.2234 74.4706L97.2274 74.4001C97.5445 74.3737 97.8791 74.3385 98.2314 74.2944C98.2402 74.312 98.2578 74.3913 98.2666 74.5322C98.2754 74.6731 98.2754 74.7524 98.2666 74.77C98.0024 74.77 97.6589 74.7788 97.2538 74.8052L96.2499 74.8757L96.2587 75.0518L97.7558 74.9461L97.7911 75.3777C97.7999 75.5274 97.8175 75.6683 97.8439 75.8092C97.8439 75.8268 97.8351 75.8356 97.8263 75.8356C97.6413 75.8356 97.3947 75.8444 97.0777 75.862L96.3291 75.9149L96.3467 76.1086L97.932 75.9941L97.9672 76.5314L98.2402 76.5137C98.3371 76.5049 98.4251 76.4961 98.5132 76.4785C98.522 76.4873 98.5308 76.549 98.5484 76.6899C98.5661 76.8308 98.5572 76.8924 98.5484 76.9012C98.4868 76.9012 98.3899 76.9012 98.2754 76.91L98.0024 76.9277L98.0288 77.3064C98.0376 77.4385 98.0553 77.5618 98.0817 77.685C98.0729 77.6939 97.9584 77.7115 97.747 77.7291C97.5357 77.7467 97.4212 77.7467 97.4212 77.7379C97.4212 77.7291 97.4212 77.7203 97.4212 77.7027C97.4212 77.6762 97.4212 77.6586 97.4212 77.6498L97.4124 77.5618L96.4612 77.6322L96.47 77.7643C96.4788 77.8876 96.47 77.9845 96.426 78.0549C96.382 78.1254 96.3203 78.1782 96.2146 78.2223C96.1001 78.2663 95.7919 78.3103 95.3163 78.3456ZM94.876 75.6859L95.7038 75.6243L95.6862 75.4129L95.2723 75.4393L94.8584 75.4657L94.876 75.6859ZM96.3467 75.5802L96.7695 75.545L97.201 75.5098L97.1834 75.2984L96.3291 75.36L96.3467 75.5802ZM96.4172 76.637L97.3683 76.5666L97.3507 76.3816L96.8751 76.4169L96.3996 76.4521L96.4172 76.637ZM96.4612 77.2359L96.9368 77.2007L97.4124 77.1654L97.3947 76.9629L96.4436 77.0333L96.4612 77.2359Z" fill="#DCDDDD"/>
<path d="M100.292 76.5754C100.283 76.549 100.283 76.4961 100.301 76.3904C100.31 76.2936 100.327 76.2231 100.336 76.2055C100.733 76.2848 101.27 76.3728 101.939 76.4521L103.524 76.6458C104.053 76.7075 104.581 76.7603 105.11 76.7868C105.118 76.8132 105.118 76.8748 105.101 76.9805C105.092 77.0862 105.074 77.139 105.065 77.1655C104.775 77.1038 104.379 77.0422 103.877 76.9805L102.679 76.8308L101.481 76.6811C101.094 76.6282 100.688 76.593 100.292 76.5754ZM104.933 76.4873C104.546 76.364 104.229 76.1967 103.973 75.9941C103.718 76.091 103.41 76.1527 103.022 76.1967C102.952 76.0558 102.864 75.9325 102.767 75.8268C103.128 75.8092 103.419 75.7652 103.639 75.6947C103.551 75.6066 103.463 75.4833 103.375 75.3248C103.269 75.3953 103.181 75.4481 103.102 75.4833C103.005 75.3865 102.908 75.3072 102.811 75.2368C102.732 75.6859 102.644 75.9413 102.547 76.0118C102.467 76.0646 102.371 76.091 102.265 76.0822C102.159 76.0822 102.027 76.0734 101.86 76.047C101.86 76.0382 101.86 76.0294 101.86 76.0206C101.86 75.9765 101.86 75.9413 101.86 75.9149L100.733 75.774L100.785 75.3072C100.741 75.3336 100.697 75.3512 100.644 75.3777C100.574 75.2632 100.477 75.1663 100.363 75.087C100.636 74.9814 100.847 74.8404 100.979 74.6731L101.094 74.7083L101.102 74.6115L100.838 74.5762C100.777 74.5674 100.688 74.5586 100.574 74.5498C100.565 74.541 100.565 74.4882 100.574 74.3913C100.583 74.2944 100.6 74.2416 100.609 74.2416C100.697 74.2592 100.785 74.268 100.873 74.2856L101.138 74.3208L101.146 74.2504C101.146 74.2416 101.146 74.224 101.146 74.2064C101.146 74.1887 101.146 74.1711 101.146 74.1623C101.261 74.1711 101.384 74.1887 101.508 74.2064C101.657 74.2416 101.737 74.268 101.728 74.2944C101.684 74.3032 101.657 74.3208 101.657 74.3385L101.648 74.3913L102.054 74.4441L102.062 74.3737C102.062 74.3649 102.062 74.3473 102.062 74.3296C102.062 74.312 102.062 74.2944 102.062 74.2856C102.177 74.2944 102.3 74.312 102.423 74.3296C102.573 74.3561 102.652 74.3913 102.644 74.4177C102.6 74.4265 102.573 74.4441 102.573 74.4618L102.564 74.5146L102.82 74.5498C102.873 74.5586 102.961 74.5674 103.075 74.5762C103.084 74.5762 103.084 74.6291 103.075 74.7348C103.066 74.8404 103.049 74.8845 103.04 74.8933C102.952 74.8757 102.873 74.8669 102.785 74.8581L102.529 74.8228L102.52 74.8845C102.52 74.8933 102.52 74.9021 102.52 74.9197C102.52 74.9373 102.52 74.9461 102.52 74.9461C102.512 74.9549 102.423 74.9549 102.247 74.9285C102.071 74.9109 101.983 74.8933 101.983 74.8757C101.983 74.8757 101.983 74.8669 101.983 74.8492C101.992 74.8316 101.992 74.8228 101.992 74.814L102.001 74.7524L101.596 74.6995L101.578 74.8316L101.323 74.7964L101.384 74.814C101.384 74.8228 101.375 74.8316 101.358 74.8492C101.349 74.8669 101.34 74.8757 101.331 74.8845L102.08 74.9725L102.82 75.0606C102.82 75.0958 102.811 75.1223 102.802 75.1575C103.137 74.9813 103.383 74.7524 103.542 74.4618C103.665 74.5058 103.78 74.5498 103.894 74.585C104 74.6291 104.053 74.6555 104.053 74.6731C104.053 74.6819 104.035 74.6819 104.017 74.6819C103.991 74.6819 103.965 74.6907 103.956 74.7171C103.947 74.7348 103.929 74.7612 103.903 74.7964C103.894 74.8052 103.885 74.814 103.885 74.8228L104.581 74.9109C104.819 74.9373 105.048 74.9549 105.277 74.9725C105.286 74.9814 105.286 75.0518 105.268 75.1663C105.25 75.2808 105.242 75.3424 105.233 75.3512C105.171 75.3336 105.11 75.3248 105.039 75.316L104.845 75.2896C104.731 75.4921 104.572 75.6683 104.361 75.8092C104.616 75.9677 104.916 76.0998 105.259 76.1879C105.154 76.2495 105.039 76.3552 104.933 76.4873ZM101.138 78.2839C100.935 78.2575 100.829 78.2399 100.821 78.2223C100.847 78.099 100.873 77.9669 100.891 77.826L100.935 77.4297L102.582 77.6322L104.238 77.8348L104.194 78.2311C104.176 78.3632 104.167 78.4953 104.167 78.6274C104.158 78.6362 104.044 78.6362 103.833 78.6098C103.621 78.5834 103.524 78.5657 103.515 78.5481V78.5393C103.515 78.5305 103.524 78.5217 103.524 78.5217L103.533 78.4865L101.437 78.2311L101.428 78.2663C101.428 78.2751 101.428 78.2751 101.428 78.2927V78.3103C101.428 78.3103 101.331 78.3103 101.138 78.2839ZM101.006 77.3592C100.997 77.3416 100.997 77.2976 101.006 77.2095C101.014 77.1214 101.032 77.0686 101.041 77.0422C101.437 77.1214 101.957 77.2095 102.626 77.2887L103.427 77.3856C103.7 77.4209 103.965 77.4385 104.229 77.4561C104.238 77.4649 104.238 77.5177 104.229 77.597C104.22 77.6762 104.211 77.7291 104.194 77.7379C104 77.6939 103.736 77.6586 103.401 77.6146L102.6 77.5177L101.798 77.4209C101.543 77.3944 101.279 77.3768 101.006 77.3592ZM101.974 75.7475L102.027 75.7564C102.071 75.7652 102.115 75.7564 102.142 75.7299C102.186 75.6947 102.23 75.5274 102.291 75.2368L101.71 75.1663L101.138 75.0958C101.085 75.1399 101.041 75.1751 101.006 75.1927L102.018 75.316L101.974 75.7475ZM101.05 77.0333C101.041 77.0069 101.041 76.9541 101.05 76.866C101.058 76.7868 101.067 76.7339 101.085 76.7251C101.279 76.7691 101.543 76.8044 101.877 76.8484L102.679 76.9453L103.48 77.0422C103.753 77.0774 104.017 77.095 104.282 77.1126C104.29 77.1214 104.29 77.1743 104.282 77.2535C104.273 77.3328 104.264 77.3856 104.246 77.3944C104.053 77.3504 103.789 77.3152 103.454 77.2711L102.652 77.1743C102.115 77.1126 101.587 77.0598 101.05 77.0333ZM101.155 75.5978L101.367 75.6243L101.578 75.6507L101.596 75.501L101.182 75.4481L101.155 75.5978ZM101.296 76.2848C101.287 76.2672 101.287 76.2231 101.296 76.135C101.305 76.0558 101.314 75.9941 101.331 75.9765C101.701 76.0558 102.177 76.1262 102.758 76.1967L103.48 76.2848C103.727 76.3112 103.965 76.3376 104.202 76.3464C104.211 76.3552 104.211 76.4081 104.202 76.4873C104.194 76.5666 104.185 76.6194 104.167 76.6282C103.991 76.593 103.753 76.549 103.454 76.5137L102.732 76.4257L102.018 76.3376C101.772 76.32 101.534 76.3024 101.296 76.2848ZM101.472 77.9669L102.52 78.0902L103.568 78.2223L103.595 78.0197L101.499 77.7643L101.472 77.9669ZM104.044 75.5098C104.185 75.4129 104.282 75.3072 104.352 75.1927L103.744 75.1223C103.78 75.2015 103.824 75.2632 103.877 75.3248C103.912 75.3689 103.965 75.4305 104.044 75.5098Z" fill="#DCDDDD"/>
<path d="M106.756 79.0853C106.66 78.9004 106.563 78.7419 106.466 78.6098C106.721 78.6186 106.968 78.601 107.197 78.5745C107.452 78.5393 107.655 78.4777 107.804 78.4072C107.928 78.4865 108.033 78.5833 108.13 78.6802C108.227 78.7859 108.254 78.8387 108.227 78.8475C108.201 78.8564 108.174 78.8564 108.139 78.8475C108.077 78.8299 108.016 78.8387 107.954 78.8652C107.848 78.9004 107.725 78.9356 107.567 78.9708C107.285 79.0325 107.021 79.0765 106.756 79.0853ZM107.857 79.5169C107.875 79.42 107.866 79.2615 107.822 79.0589C108.06 79.147 108.236 79.1998 108.35 79.2262C108.412 79.2439 108.447 79.235 108.465 79.1998L108.632 78.6538L107.188 78.2046L107.276 77.9052C107.126 77.914 107.003 77.914 106.889 77.9052C106.844 77.7379 106.792 77.5882 106.712 77.4737C107.012 77.4913 107.311 77.4825 107.611 77.4296C107.54 77.2975 107.443 77.1654 107.329 77.0157C107.311 77.0157 107.276 77.0245 107.232 77.0245C107.214 77.0245 107.197 77.0245 107.188 77.0245C107.135 76.866 107.065 76.7427 106.968 76.637C107.593 76.6106 108.06 76.4697 108.386 76.2055C108.5 76.2583 108.606 76.32 108.72 76.3904C108.826 76.4521 108.87 76.4873 108.87 76.4873C108.87 76.4873 108.852 76.4873 108.835 76.4873C108.808 76.4785 108.791 76.4873 108.773 76.4961C108.747 76.5137 108.72 76.5402 108.676 76.5578L109.143 76.7075L109.24 76.7163L109.434 76.8748C109.416 76.7779 109.407 76.6987 109.398 76.6282L109.883 76.6723C109.9 76.8572 109.953 77.051 110.033 77.2447L110.112 76.9981L111.072 77.2975L111.125 77.3063L111.213 77.0333L109.592 76.5314L107.972 76.0294L107.919 76.1967C107.901 76.2583 107.884 76.3112 107.875 76.364C107.866 76.3728 107.769 76.3552 107.593 76.2936C107.408 76.2407 107.32 76.2055 107.311 76.1879C107.364 76.0734 107.408 75.9589 107.443 75.8268L107.558 75.4569L109.425 76.0382L109.469 75.8973C109.478 75.862 109.495 75.8092 109.504 75.7475C109.645 75.7828 109.786 75.8268 109.927 75.8884C110.103 75.9589 110.182 76.0029 110.182 76.0294C110.121 76.047 110.077 76.0734 110.068 76.1174L110.033 76.2319L111.9 76.8132L111.671 77.5441L111.292 77.4296L111.468 77.6058C111.23 77.8171 110.957 78.0021 110.649 78.1518C110.896 78.3896 111.186 78.5921 111.521 78.7683C111.362 78.8299 111.213 78.9268 111.063 79.0501C110.64 78.8035 110.297 78.5305 110.05 78.2223L109.997 78.3984L108.306 77.87L108.342 77.7379C108.104 77.8171 107.857 77.87 107.584 77.9052L109.231 78.416C109.742 78.5745 110.27 78.7154 110.79 78.8475C110.79 78.874 110.772 78.962 110.728 79.1029C110.684 79.2439 110.658 79.3231 110.64 79.3319C110.473 79.2615 110.235 79.1822 109.936 79.0853L109.222 78.8652L109.046 79.4288C109.011 79.5433 108.967 79.6225 108.923 79.6666C108.87 79.7106 108.791 79.737 108.685 79.7458C108.588 79.7458 108.474 79.7282 108.333 79.693C108.227 79.6225 108.077 79.5785 107.857 79.5169ZM108.025 77.3416C108.069 77.3328 108.13 77.3064 108.21 77.2799C108.139 77.1654 108.033 77.051 107.901 76.91H107.892C107.822 76.9277 107.769 76.9453 107.725 76.9541C107.778 77.0157 107.84 77.0862 107.892 77.1566C107.954 77.2271 107.989 77.2887 108.025 77.3416ZM108.544 77.1214C108.659 77.0598 108.756 76.9981 108.826 76.9365L108.289 76.7691L108.245 76.7867C108.298 76.8308 108.35 76.8836 108.403 76.9541C108.465 77.0157 108.509 77.0686 108.544 77.1214ZM108.729 77.5529L109.275 77.7203L109.821 77.8876C109.654 77.6146 109.531 77.324 109.469 77.0157C109.266 77.2271 109.02 77.4032 108.729 77.5529ZM110.358 80.2038C110.262 80.0805 110.103 79.9132 109.9 79.7106C109.707 79.5257 109.522 79.3495 109.328 79.191L109.821 79.0149C109.997 79.1558 110.191 79.3231 110.402 79.5169C110.614 79.7106 110.781 79.8691 110.887 80.0012L110.358 80.2038ZM110.323 77.7643C110.429 77.7115 110.535 77.6498 110.649 77.5617L110.094 77.3944C110.112 77.4385 110.147 77.5001 110.2 77.5794C110.253 77.6586 110.297 77.7291 110.323 77.7643Z" fill="#DCDDDD"/>
<path d="M87.3197 135.977V138.804H86.5976C86.5183 138.505 86.3862 138.267 86.2277 138.082C85.4967 138.708 84.5192 139.025 83.3214 139.025C81.9476 139.025 80.8555 138.646 80.0365 137.88C79.2174 137.114 78.8035 136.215 78.8035 135.167C78.8035 134.137 79.2086 133.221 80.0189 132.411C80.8291 131.609 81.9564 131.204 83.3919 131.204C84.4663 131.204 85.3734 131.504 86.122 132.111C86.2189 131.926 86.3157 131.697 86.395 131.442H87.1172L87.2052 134.225H86.4831C86.2717 133.468 85.9194 132.895 85.4351 132.508C84.9507 132.12 84.3782 131.926 83.7089 131.926C82.9427 131.926 82.3703 132.182 81.9828 132.693C81.5953 133.203 81.4015 134.005 81.4015 135.088C81.4015 135.854 81.472 136.453 81.6129 136.902C81.7538 137.351 82.0268 137.695 82.4407 137.933C82.8547 138.17 83.3038 138.294 83.7882 138.294C84.4311 138.294 85.0035 138.1 85.5143 137.721C86.0163 137.343 86.3862 136.761 86.6064 135.977H87.3197Z" fill="#DCDDDD"/>
<path d="M88.9754 138.065C88.9754 137.792 89.0899 137.554 89.3189 137.36C89.5479 137.158 89.8297 137.061 90.1555 137.061C90.4814 137.061 90.7632 137.158 90.9922 137.36C91.2212 137.554 91.3356 137.792 91.3356 138.065C91.3356 138.346 91.2211 138.575 90.9834 138.778C90.7544 138.972 90.4726 139.069 90.1555 139.069C89.8385 139.069 89.5567 138.972 89.3277 138.778C89.0987 138.584 88.9754 138.346 88.9754 138.065Z" fill="#DCDDDD"/>
<path d="M96.0825 131.953V131.336H100.759V131.953H100.618C100.178 131.953 99.8959 132.023 99.7638 132.164C99.6317 132.305 99.5612 132.543 99.5612 132.877V137.334C99.5612 137.677 99.6317 137.915 99.7638 138.056C99.9047 138.188 100.187 138.258 100.618 138.258H100.759V138.875H96.0825V138.258C96.5493 138.258 96.8663 138.197 97.016 138.073C97.1746 137.95 97.245 137.704 97.245 137.334V132.877C97.245 132.516 97.1746 132.279 97.0248 132.146C96.8927 132.023 96.5757 131.953 96.0825 131.953Z" fill="#DCDDDD"/>
<path d="M102.194 138.065C102.194 137.792 102.309 137.554 102.538 137.36C102.767 137.158 103.049 137.061 103.375 137.061C103.7 137.061 103.982 137.158 104.211 137.36C104.44 137.554 104.555 137.792 104.555 138.065C104.555 138.346 104.44 138.575 104.202 138.778C103.973 138.972 103.692 139.069 103.375 139.069C103.058 139.069 102.776 138.972 102.547 138.778C102.318 138.584 102.194 138.346 102.194 138.065Z" fill="#DCDDDD"/>
<path d="M109.354 138.875V138.258C109.821 138.258 110.129 138.197 110.279 138.073C110.429 137.95 110.508 137.704 110.508 137.343V132.886C110.508 132.534 110.438 132.287 110.297 132.155C110.156 132.023 109.839 131.962 109.354 131.962V131.354L110.42 131.319C111.486 131.283 112.331 131.266 112.939 131.266C113.96 131.266 114.779 131.319 115.422 131.416C116.065 131.512 116.664 131.733 117.228 132.076C117.791 132.419 118.232 132.851 118.54 133.388C118.848 133.925 118.998 134.524 118.998 135.167C118.998 135.828 118.839 136.427 118.514 136.946C118.188 137.466 117.756 137.889 117.201 138.197C116.655 138.505 116.083 138.699 115.502 138.778C114.912 138.848 113.925 138.893 112.542 138.893H109.354V138.875ZM112.824 131.926V137.114C112.824 137.448 112.842 137.668 112.877 137.783C112.912 137.897 113.009 137.994 113.168 138.073C113.326 138.153 113.573 138.197 113.899 138.197C114.718 138.197 115.325 137.941 115.739 137.431C116.153 136.92 116.347 136.154 116.347 135.141C116.347 134.322 116.197 133.661 115.898 133.177C115.598 132.693 115.211 132.358 114.727 132.191C114.251 132.014 113.617 131.926 112.824 131.926Z" fill="#DCDDDD"/>
<path d="M120.099 138.065C120.099 137.792 120.213 137.554 120.442 137.36C120.671 137.158 120.953 137.061 121.279 137.061C121.605 137.061 121.887 137.158 122.116 137.36C122.344 137.554 122.459 137.792 122.459 138.065C122.459 138.346 122.344 138.575 122.107 138.778C121.878 138.972 121.596 139.069 121.279 139.069C120.962 139.069 120.68 138.972 120.451 138.778C120.222 138.584 120.099 138.346 120.099 138.065Z" fill="#DCDDDD"/>
<path fill-rule="evenodd" clip-rule="evenodd" d="M118.152 120.319C115.66 119.984 113.388 118.54 110.49 119.015C110.737 118.778 110.825 118.654 110.94 118.575C112.551 117.448 114.216 116.382 115.766 115.176C116.488 114.612 117.201 114.427 118.012 114.665C119.984 115.237 121.843 115 123.639 114.057C124.696 113.502 125.911 113.177 126.713 112.023C123.974 111.327 121.349 110.781 118.778 112.49C118.919 112.102 119.104 111.785 119.324 111.477C120.125 110.367 121.094 109.337 121.693 108.13C122.212 107.082 122.996 106.739 123.974 106.439C124.652 106.228 125.471 106.087 125.929 105.629C127.312 104.264 128.553 102.767 129.848 101.314C129.786 101.243 129.725 101.173 129.654 101.094C127.223 101.252 125.031 101.895 123.648 104.194C123.939 103.26 124.238 102.388 124.634 101.552C124.89 101.014 125.216 100.459 125.638 100.046C126.202 99.4996 127.153 99.2089 127.47 98.5748C128.395 96.743 129.091 94.7879 129.874 92.8856C129.892 92.8504 129.769 92.7535 129.531 92.4805C128.518 93.4845 127.488 94.4268 126.545 95.4396C125.365 96.7078 124.256 98.0288 124.846 99.9663C124.881 100.09 124.802 100.275 124.731 100.415C123.586 102.846 122.459 105.294 121.261 107.708C120.883 108.465 120.301 109.117 119.808 109.812C119.667 109.76 119.535 109.707 119.394 109.654C121.473 106.977 121.068 104.106 120.345 101.085C118.892 102.23 117.536 103.331 117.589 105.25C117.624 106.307 117.827 107.39 118.144 108.403C118.707 110.191 118.76 111.767 117.14 113.088C115.986 114.031 114.912 115.07 113.872 116.004C114.013 113.458 114.154 110.922 114.295 108.254C111.204 110.297 110.006 114.683 111.803 117.545C109.152 118.716 106.527 119.879 103.912 121.041C103.938 121.112 103.973 121.182 104 121.252C104.951 120.988 105.929 120.786 106.853 120.425C107.373 120.222 107.619 120.354 107.998 120.671C108.562 121.147 109.169 121.614 109.848 121.904C112.093 122.873 114.26 122.204 116.391 121.402C117.008 121.173 117.589 120.847 118.188 120.565C118.196 120.504 118.179 120.407 118.152 120.319Z" fill="#121F34"/>
<path fill-rule="evenodd" clip-rule="evenodd" d="M78.8387 120.319C81.3311 119.984 83.6032 118.54 86.5007 119.015C86.2541 118.778 86.166 118.654 86.0515 118.575C84.4399 117.448 82.7754 116.382 81.2254 115.176C80.5032 114.612 79.7899 114.427 78.9797 114.665C77.0069 115.237 75.1487 115 73.3521 114.057C72.2953 113.502 71.0799 113.177 70.2785 112.023C73.0174 111.327 75.6419 110.781 78.2135 112.49C78.0725 112.102 77.8876 111.785 77.6674 111.477C76.866 110.367 75.8973 109.337 75.2984 108.13C74.7788 107.082 73.995 106.739 73.0174 106.439C72.3393 106.228 71.5203 106.087 71.0623 105.629C69.6796 104.264 68.4379 102.767 67.1433 101.314C67.2049 101.243 67.2666 101.173 67.337 101.094C69.7677 101.252 71.9606 101.895 73.3433 104.194C73.0527 103.26 72.7532 102.388 72.3569 101.552C72.1015 101.014 71.7757 100.459 71.3529 100.046C70.7893 99.4996 69.8382 99.2089 69.5211 98.5748C68.5964 96.743 67.9007 94.7879 67.1169 92.8856C67.0992 92.8504 67.2225 92.7535 67.4603 92.4805C68.4731 93.4845 69.5035 94.4268 70.4458 95.4396C71.6259 96.7078 72.7356 98.0288 72.1456 99.9663C72.1103 100.09 72.1896 100.275 72.26 100.415C73.4049 102.846 74.5322 105.294 75.7299 107.708C76.1086 108.465 76.6899 109.117 77.1831 109.812C77.324 109.76 77.4561 109.707 77.597 109.654C75.5186 106.977 75.9237 104.106 76.6458 101.085C78.099 102.23 79.4552 103.331 79.4024 105.25C79.3672 106.307 79.1646 107.39 78.8476 108.403C78.2839 110.191 78.2311 111.767 79.8515 113.088C81.0052 114.031 82.0797 115.07 83.1189 116.004C82.978 113.458 82.837 110.922 82.6961 108.254C85.7873 110.297 86.9851 114.683 85.1885 117.545C87.8393 118.716 90.4638 119.879 93.0794 121.041C93.053 121.112 93.0177 121.182 92.9913 121.252C92.0402 120.988 91.0626 120.786 90.1379 120.425C89.6183 120.222 89.3717 120.354 88.993 120.671C88.4294 121.147 87.8217 121.614 87.1436 121.904C84.8978 122.873 82.7314 122.204 80.6001 121.402C79.9836 121.173 79.4024 120.847 78.8035 120.565C78.8035 120.504 78.8211 120.407 78.8387 120.319Z" fill="#121F34"/>
<path fill-rule="evenodd" clip-rule="evenodd" d="M98.566 118.549C98.9976 118.91 99.3675 119.385 99.7638 119.79C100.327 119.843 100.882 119.826 101.437 119.94C101.428 120.504 101.287 121.085 101.217 121.658C101.534 122.133 101.886 122.547 102.142 123.067C101.772 123.348 101.111 123.692 100.662 123.965C100.486 124.502 100.38 125.048 100.142 125.568C99.5965 125.436 99.0592 125.163 98.522 124.969C97.9936 125.171 97.5004 125.418 96.9456 125.559C96.7078 125.048 96.5845 124.458 96.3996 123.921C95.9152 123.63 95.4132 123.401 94.9552 123.058C95.2106 122.556 95.5893 122.089 95.8976 121.614C95.8271 121.067 95.6862 120.495 95.6774 119.949C96.2322 119.835 96.8311 119.843 97.3947 119.782C97.7999 119.35 98.1257 118.91 98.566 118.549Z" fill="#121F34"/>
<path fill-rule="evenodd" clip-rule="evenodd" d="M89.7856 125.233C91.3004 124.361 92.824 123.481 94.3388 122.609C94.1098 122.979 93.9425 123.357 94.0041 123.621C94.1186 124.141 95.149 124.634 95.6862 124.925C95.7919 125.286 95.9328 125.858 96.1354 126.299C94.6999 127.127 93.2643 127.954 91.8376 128.782C92.2868 127.734 92.7359 126.686 93.1939 125.638C92.0578 125.497 90.9217 125.365 89.7856 125.233Z" fill="#121F34"/>
<path fill-rule="evenodd" clip-rule="evenodd" d="M107.602 125.233C106.078 124.352 104.555 123.472 103.031 122.591C103.269 122.97 103.445 123.366 103.383 123.639C103.269 124.15 102.212 124.661 101.675 124.969C101.569 125.321 101.437 125.867 101.252 126.29C102.688 127.118 104.123 127.946 105.559 128.773C105.11 127.725 104.66 126.677 104.202 125.629C105.339 125.497 106.466 125.365 107.602 125.233Z" fill="#121F34"/>
<path d="M104.863 95.9944C105.656 95.4484 106.536 94.9728 107.452 94.6646C109.046 94.1362 110.675 93.7047 112.314 93.326C120.883 91.318 126.017 84.7393 125.515 76.0734C124.115 80.4416 121.446 83.4711 117.51 85.2853C115.625 86.1572 113.599 86.7032 111.679 87.4958C109.645 88.3325 107.619 89.1956 105.603 90.0762C105.224 90.2436 104.784 90.2348 104.405 90.0674C104.405 90.0674 103.005 89.2836 102.873 88.949L100.257 82.2822L102.08 81.5512L99.0064 79.8163L97.4828 80.5649L95.2459 88.6407C95.1138 89.1251 93.872 89.9177 93.872 89.9177C93.4229 90.1203 92.9033 90.1115 92.4541 89.9089C92.3837 89.8737 92.322 89.8473 92.2604 89.8208C89.8649 88.7904 87.3726 87.9714 84.889 87.1788C79.191 85.347 74.224 82.6873 72.0047 76.5049C72.1015 77.1126 72.1456 77.7291 72.2953 78.3191C72.8237 80.4592 73.2024 82.6697 73.9774 84.7217C75.9325 89.9089 80.1774 92.1811 85.303 93.3612C87.6104 93.8896 89.9882 94.5061 92.0666 95.5893C96.382 97.8527 96.655 102.291 92.8592 105.321C91.6791 106.254 90.3933 107.047 89.0987 107.937C89.3541 108.121 89.6007 108.306 89.8561 108.465C92.5774 110.226 92.6302 110.27 94.6646 107.637C95.607 106.422 96.3027 105.021 97.1041 103.709C97.2362 103.78 97.1834 103.753 97.3155 103.815C96.2675 106.281 95.2195 108.738 94.1362 111.292C95.5277 112.199 96.928 113.133 98.3459 114.022C98.5572 114.154 98.98 114.198 99.1737 114.084C100.662 113.159 102.124 112.19 103.568 111.239C102.943 109.918 102.371 108.764 101.869 107.584C101.367 106.404 100.935 105.198 100.354 103.7C101.596 105.497 102.512 107.073 103.674 108.447C105.154 110.191 105.233 110.121 107.117 108.888C107.593 108.579 108.077 108.271 108.527 107.972C107.056 106.897 105.515 105.981 104.22 104.801C101.217 102.062 101.516 98.3194 104.863 95.9944Z" fill="#121F34"/>
<path d="M91.2916 99.7197C92.9737 100.46 93.3084 101.552 92.8945 103.489C95.0433 100.935 94.7351 98.6189 92.1195 97.0072C91.3356 96.5229 90.4814 96.1089 89.6007 95.8359C87.8746 95.2899 86.0956 94.9112 84.3694 94.374C79.8956 92.9913 75.8004 91.0538 73.3961 86.5535C73.3081 88.3413 73.9422 89.812 74.8493 91.1947C77.2711 94.876 80.9172 96.5845 85.0476 97.6149C87.1612 98.1521 89.2837 98.8391 91.2916 99.7197Z" fill="#121F34"/>
<path d="M119.808 91.4237C117.21 93.2027 114.269 94.1362 111.257 94.9464C109.266 95.4836 107.241 96.1265 105.435 97.0953C102.908 98.4515 102.635 100.953 104.599 103.198C104.22 100.812 105.682 99.7638 107.47 99.1385C109.513 98.4251 111.609 97.8703 113.705 97.3155C117.624 96.2763 120.891 94.3211 123.058 90.7896C124.009 89.2396 124.361 87.8129 124.053 86.5447C123.322 88.8609 121.605 90.1907 119.808 91.4237Z" fill="#121F34"/>
<path d="M92.2516 103.877C92.3484 102.371 91.8905 101.235 90.7896 100.627C89.4862 99.9135 88.0595 99.3851 86.6416 98.9447C84.0964 98.1521 81.3135 98.064 78.918 96.0209C79.7635 97.9496 80.8907 99.253 82.5112 99.9399C83.9643 100.556 85.5319 100.917 87.0555 101.349C88.8873 101.851 90.9658 101.816 92.2516 103.877Z" fill="#121F34"/>
<path d="M107.787 100.037C106.263 100.653 105.294 101.842 105.383 103.366C106.351 102.881 107.338 102.238 108.421 101.877C109.627 101.472 110.922 101.331 112.173 101.032C114.982 100.363 117.386 99.1297 118.461 96.6373C116.761 97.1922 114.876 97.8263 112.974 98.4251C111.248 98.9712 109.46 99.3586 107.787 100.037Z" fill="#121F34"/>
<path d="M100.539 59.5165L98.4958 53.2373L96.4614 59.5165H89.8651L95.202 63.3916L93.1588 69.6708L98.4958 65.7958L103.833 69.6708L101.798 63.3916L107.135 59.5165H100.539Z" fill="#121F34"/>
<path d="M107.135 59.5167H100.539L98.4956 53.2463L96.4524 59.5167H89.8561L95.193 63.3917L93.1498 69.671L98.4868 65.796L103.824 69.671L101.789 63.3917L107.135 59.5167ZM102.785 68.2267L98.4956 65.1091V62.3261L94.2067 68.2267L95.8447 63.1804L98.4956 62.3173L91.5646 60.0627H96.8663L98.5044 62.3173V55.0252L100.142 60.0627L98.5044 62.3173L105.444 60.0627L101.155 63.1804L98.5044 62.3173L102.785 68.2267Z" fill="#DCDDDD"/>
<path d="M79.2351 70.7893C79.2263 70.5867 79.5345 70.5955 79.5433 70.7893C79.5785 71.6436 79.6666 72.5859 79.5169 73.449C80.3183 72.3041 80.2567 69.8558 79.3143 68.4467C79.3143 68.4467 78.0197 70.9302 79.1998 73.4578C79.3584 72.5947 79.2703 71.6436 79.2351 70.7893Z" fill="#121F34"/>
<path d="M81.7098 68.0944C81.745 67.9007 82.0356 67.9799 82.0092 68.1737C81.8771 69.0191 81.7714 69.9526 81.4544 70.7629C82.4672 69.8029 82.8899 67.3899 82.2558 65.8222C82.2558 65.8222 80.4856 68.0063 81.1461 70.71C81.472 69.9086 81.5777 68.9487 81.7098 68.0944Z" fill="#121F34"/>
<path d="M86.0427 63.5413C86.0427 63.5413 83.6825 65.056 83.4535 67.8302C84.0172 67.1697 84.4135 66.289 84.8098 65.5316C84.8979 65.3555 85.1709 65.514 85.074 65.6901C84.6777 66.4475 84.2902 67.3106 83.7353 67.9799C84.9947 67.3899 86.1572 65.2322 86.0427 63.5413Z" fill="#121F34"/>
<path d="M85.6464 67.3458C86.3862 66.8879 87.0291 66.1833 87.6456 65.5845C87.7865 65.4436 88.0067 65.6637 87.8657 65.8046C87.2581 66.4035 86.6152 67.108 85.8754 67.5748C87.2669 67.3987 89.0371 65.7166 89.451 64.0697C89.4422 64.0697 86.7209 64.7742 85.6464 67.3458Z" fill="#121F34"/>
<path d="M83.3478 69.1864C84.2197 69.16 85.1268 68.8694 85.9547 68.6492C86.1484 68.5964 86.2277 68.8958 86.0339 68.9487C85.2061 69.1688 84.299 69.4506 83.4271 69.4947C84.7129 70.0319 87.0996 69.4506 88.2709 68.2353C88.2621 68.2265 85.5584 67.4867 83.3478 69.1864Z" fill="#121F34"/>
<path d="M81.516 71.9958C82.3615 71.8109 83.1981 71.3705 83.9731 71.0095C84.1493 70.9302 84.3078 71.1944 84.1317 71.2737C83.3478 71.6348 82.5024 72.0839 81.6481 72.2776C83.0132 72.5859 85.2501 71.5819 86.1925 70.1816C86.1925 70.1904 83.3919 69.9438 81.516 71.9958Z" fill="#121F34"/>
<path d="M79.7194 73.9862C80.5913 73.9686 81.4984 73.7044 82.3351 73.493C82.5288 73.449 82.6081 73.7396 82.4143 73.7924C81.5777 73.995 80.6618 74.268 79.7899 74.2944C81.0669 74.8581 83.4623 74.312 84.6601 73.1143C84.6601 73.1231 81.9652 72.3305 79.7194 73.9862Z" fill="#121F34"/>
<path d="M76.8484 73.1671C76.8396 72.9646 77.1478 72.9734 77.1567 73.1671C77.1919 74.0214 77.2799 74.9637 77.1302 75.8268C77.9317 74.6819 77.87 72.2336 76.9277 70.8245C76.9277 70.8245 75.6331 73.3081 76.8132 75.8356C76.9805 74.9813 76.8924 74.0214 76.8484 73.1671Z" fill="#121F34"/>
<path d="M77.3416 76.3728C78.2135 76.3552 79.1206 76.091 79.9572 75.8796C80.151 75.8356 80.2302 76.1262 80.0365 76.1791C79.1998 76.3816 78.2839 76.6546 77.412 76.6811C78.689 77.2447 81.0845 76.6987 82.2822 75.5009C82.2822 75.5009 79.5873 74.7171 77.3416 76.3728Z" fill="#121F34"/>
<path d="M117.765 70.7893C117.774 70.5867 117.466 70.5955 117.457 70.7893C117.421 71.6436 117.333 72.5859 117.483 73.449C116.682 72.3041 116.743 69.8558 117.686 68.4467C117.686 68.4467 118.98 70.9302 117.8 73.4578C117.633 72.5947 117.721 71.6436 117.765 70.7893Z" fill="#121F34"/>
<path d="M115.29 68.0944C115.255 67.9007 114.964 67.9799 114.991 68.1737C115.123 69.0191 115.229 69.9526 115.546 70.7629C114.533 69.8029 114.11 67.3899 114.744 65.8222C114.744 65.8222 116.514 68.0063 115.854 70.71C115.519 69.9086 115.422 68.9487 115.29 68.0944Z" fill="#121F34"/>
<path d="M110.957 63.5413C110.957 63.5413 113.317 65.056 113.546 67.8302C112.983 67.1697 112.587 66.289 112.19 65.5316C112.102 65.3555 111.829 65.514 111.926 65.6901C112.322 66.4475 112.71 67.3106 113.265 67.9799C111.996 67.3899 110.843 65.2322 110.957 63.5413Z" fill="#121F34"/>
<path d="M111.354 67.3458C110.614 66.8879 109.971 66.1833 109.354 65.5845C109.214 65.4436 108.993 65.6637 109.134 65.8046C109.742 66.4035 110.385 67.108 111.125 67.5748C109.733 67.3987 107.963 65.7166 107.549 64.0697C107.558 64.0697 110.27 64.7742 111.354 67.3458Z" fill="#121F34"/>
<path d="M113.652 69.1864C112.78 69.16 111.873 68.8694 111.045 68.6492C110.852 68.5964 110.772 68.8958 110.966 68.9487C111.794 69.1688 112.701 69.4506 113.573 69.4947C112.287 70.0319 109.9 69.4506 108.729 68.2353C108.729 68.2265 111.433 67.4867 113.652 69.1864Z" fill="#121F34"/>
<path d="M115.484 71.9958C114.639 71.8109 113.802 71.3705 113.027 71.0095C112.851 70.9302 112.692 71.1944 112.868 71.2737C113.652 71.6348 114.498 72.0839 115.352 72.2776C113.987 72.5859 111.75 71.5819 110.808 70.1816C110.808 70.1904 113.599 69.9438 115.484 71.9958Z" fill="#121F34"/>
<path d="M117.272 73.9862C116.4 73.9686 115.493 73.7044 114.656 73.493C114.462 73.449 114.383 73.7396 114.577 73.7924C115.414 73.995 116.329 74.268 117.201 74.2944C115.924 74.8581 113.529 74.312 112.331 73.1143C112.34 73.1231 115.026 72.3305 117.272 73.9862Z" fill="#121F34"/>
<path d="M120.143 73.1671C120.152 72.9646 119.843 72.9734 119.835 73.1671C119.799 74.0214 119.711 74.9637 119.861 75.8268C119.06 74.6819 119.121 72.2336 120.064 70.8245C120.064 70.8245 121.358 73.3081 120.178 75.8356C120.02 74.9813 120.108 74.0214 120.143 73.1671Z" fill="#121F34"/>
<path d="M119.658 76.3728C118.787 76.3552 117.879 76.091 117.043 75.8796C116.849 75.8356 116.77 76.1262 116.964 76.1791C117.8 76.3816 118.716 76.6546 119.588 76.6811C118.311 77.2447 115.916 76.6987 114.718 75.5009C114.718 75.5009 117.413 74.7171 119.658 76.3728Z" fill="#121F34"/>
</g>
<defs>
<clipPath id="clip0">
<rect width="197" height="197" fill="white"/>
</clipPath>
</defs>
</svg>
