<svg width="1280" height="71" viewBox="0 0 1280 71" fill="none" xmlns="http://www.w3.org/2000/svg">
<path fill-rule="evenodd" clip-rule="evenodd" d="M399 0H0V30.3867H409.852L419 56H861L870.148 30.3867H1280V0H881H399Z" fill="url(#paint0_linear)"/>
<path d="M11.5 44H400L410 70H870.5L879.5 44H1263" stroke="url(#paint1_linear)"/>
<path opacity="0.87" d="M505.576 25.848V28.824H510.616L510.784 29.4H511.768C512.056 29.4 512.32 29.352 512.584 29.28C512.728 29.52 512.872 29.76 513.016 30.024H503.608V31.656H524.416V30.024H515.176C514.984 29.544 514.768 29.088 514.528 28.68L513.52 28.824C513.616 28.728 513.736 28.584 513.832 28.44C514.216 27.816 514.408 26.04 514.408 23.136H507.088L507.208 22.728L505.336 22.392C504.904 23.784 504.088 24.888 502.888 25.704L504.088 27.192C504.616 26.808 505.12 26.352 505.576 25.848ZM510.784 27.936V25.44H505.888C506.056 25.2 506.224 24.936 506.392 24.672H512.392C512.368 26.064 512.296 26.928 512.176 27.312C512.056 27.696 511.768 27.888 511.336 27.936H510.784ZM509.152 27.72H507.232V26.544H509.152V27.72ZM517.744 22.464H520.768C520.552 23.304 520.216 24.072 519.736 24.744C519.16 24.408 518.536 24.048 517.888 23.712L516.568 24.96C517.216 25.32 517.84 25.68 518.44 26.064C517.504 26.76 516.304 27.264 514.864 27.6L515.656 29.328C517.456 28.896 518.944 28.176 520.12 27.168C521.224 27.912 522.184 28.632 523 29.352L524.464 27.912C523.552 27.192 522.52 26.472 521.368 25.752C521.992 24.816 522.448 23.712 522.736 22.464H524.368V20.664H518.512C518.632 20.28 518.752 19.896 518.848 19.488L516.88 19.128C516.448 21 515.632 22.512 514.432 23.616L515.632 25.104C516.472 24.384 517.168 23.496 517.744 22.464ZM506.512 32.52V33.816H521.704V32.52H506.512ZM506.512 34.704V36.024H521.704V34.704H506.512ZM522.568 36.96H505.696V41.664H507.928V41.016H520.36V41.664H522.568V36.96ZM507.928 39.576V38.424H520.36V39.576H507.928ZM506.728 19.224V20.112H503.584V21.792H506.728V22.536H508.6V19.224H506.728ZM510.112 19.224V22.608H511.984V21.792H515.056V20.112H511.984V19.224H510.112ZM528.784 21.312V23.544H533.44V36.48C532.864 36.624 532.264 36.792 531.64 36.936V26.472H529.504V37.44C529.024 37.536 528.544 37.656 528.064 37.752L528.688 39.864C532.576 38.952 535.984 37.992 538.936 36.936V34.824C537.88 35.184 536.776 35.544 535.624 35.88V30.312H537.76L539.056 32.016C539.584 31.2 540.088 30.36 540.544 29.448C541.168 31.512 541.936 33.384 542.872 35.064C541.336 36.984 539.248 38.496 536.608 39.624L538 41.496C540.472 40.344 542.512 38.856 544.12 37.008C545.512 38.928 547.216 40.416 549.208 41.472L550.504 39.552C548.56 38.544 546.88 37.08 545.488 35.16C547.192 32.472 548.128 29.16 548.296 25.224H549.928V23.016H542.872C543.136 21.912 543.376 20.736 543.568 19.512L541.336 19.272C540.76 23.304 539.704 26.736 538.144 29.616V28.152H535.624V23.544H539.104V21.312H528.784ZM544.168 33.072C543.352 31.56 542.656 29.832 542.104 27.912L540.976 28.56C541.456 27.504 541.864 26.376 542.248 25.224H546.112C546.016 28.224 545.368 30.84 544.168 33.072ZM555.64 20.088V24.96H562.528V26.136H556.384V27.912H562.528V29.232H553.768V31.176H563.728C560.848 32.28 557.488 33.048 553.672 33.432L554.896 35.304C556 35.088 557.104 34.848 558.16 34.608V41.64H560.392V40.656H570.04V41.64H572.272V32.52H564.688C565.72 32.088 566.704 31.656 567.616 31.176H575.152V29.232H570.832C572.032 28.368 573.136 27.432 574.12 26.4L572.248 25.416C571.48 26.256 570.616 27.072 569.656 27.84V26.136H564.736V24.96H573.064V20.088H555.64ZM567.664 29.232H564.736V27.912H569.56C568.96 28.368 568.336 28.8 567.664 29.232ZM570.904 23.304H567.928V21.768H570.904V23.304ZM565.84 23.304H562.912V21.768H565.84V23.304ZM560.824 23.304H557.8V21.768H560.824V23.304ZM560.392 37.416H570.04V38.808H560.392V37.416ZM570.04 35.688H560.392V34.248H570.04V35.688ZM583.72 19.272C582.568 22.944 580.816 26.16 578.416 28.896L579.136 31.272C579.904 30.456 580.624 29.616 581.296 28.752V41.496H583.552V25.32C584.464 23.712 585.184 22.008 585.76 20.232L583.72 19.272ZM600.04 20.088H586V41.448H588.04V40.08H597.976V41.448H600.04V20.088ZM588.04 38.064V22.056H597.976V38.064H588.04ZM588.88 25.536V27.48H592.072V29.904H589.768V36.888H596.392V29.904H594.016V27.48H597.184V25.536H594.016V23.064H592.072V25.536H588.88ZM594.616 35.16H591.52V31.632H594.616V35.16ZM615.88 19.368H613.576C613.576 20.28 613.552 21.528 613.552 23.136C613.36 30.024 610.024 35.424 603.544 39.36L604.936 41.4C609.976 38.136 613.288 34.008 614.872 29.016C616.696 34.152 619.912 38.28 624.52 41.352L626.032 39.36C620.56 36 617.104 31.128 615.712 24.744C615.808 23.256 615.88 21.48 615.88 19.368ZM640.216 22.416H647.368C646.984 23.04 646.576 23.568 646.12 24.048L647.68 25.272C648.424 24.456 649.12 23.4 649.744 22.128V20.544H641.32C641.488 20.184 641.632 19.8 641.776 19.416L639.688 19.176C639.064 20.856 637.912 22.248 636.232 23.4L637.48 25.056C638.56 24.288 639.472 23.4 640.216 22.416ZM629.896 20.568V22.488H635.848V20.568H629.896ZM629.416 24.888V26.832H636.352V24.888H629.416ZM642.664 22.632C642.064 24.84 640.168 26.232 636.952 26.808L637.864 28.2H632.08V38.112H636.496C634.816 38.808 632.464 39.384 629.392 39.864L630.424 41.616C633.736 41.064 636.28 40.32 638.056 39.384L637.072 38.112H642.592L641.848 39.552C644.632 40.032 647.32 40.728 649.864 41.64L650.608 39.84C648.232 39.096 645.76 38.52 643.192 38.112H647.944V28.272C648.52 28.464 649.144 28.608 649.792 28.704L650.728 26.832C648.136 26.52 645.976 25.56 644.272 23.976C644.392 23.664 644.488 23.352 644.584 23.016L642.664 22.632ZM639.016 28.2C640.936 27.672 642.376 26.76 643.384 25.512C644.632 26.736 646.072 27.624 647.728 28.2H639.016ZM645.712 36.288H634.312V35.112H645.712V36.288ZM634.312 33.624V32.568H645.712V33.624H634.312ZM634.312 31.056V29.928H645.712V31.056H634.312ZM656.392 21.312L654.52 21.912C655.048 23.448 655.48 25.08 655.816 26.76L657.592 26.28C657.232 24.408 656.824 22.752 656.392 21.312ZM661.912 21.024C661.816 22.92 661.552 24.6 661.144 26.064L662.824 26.592C663.352 25.056 663.664 23.28 663.808 21.288L661.912 21.024ZM654.784 27.6V29.784H658.264V41.4H660.472V29.784H663.712V27.6H660.472V19.296H658.264V27.6H654.784ZM671.752 19.368V33.168L664.432 34.272L664.768 36.48L671.752 35.424V41.448H673.936V35.088L676.36 34.728L676 32.52L673.936 32.832V19.368H671.752ZM666.928 21.048L665.44 22.488C667.216 23.76 668.584 24.936 669.568 26.04L671.056 24.552C669.952 23.4 668.56 22.224 666.928 21.048ZM666.304 26.688L664.816 28.104C666.568 29.448 667.912 30.696 668.848 31.896L670.384 30.384C669.28 29.16 667.912 27.936 666.304 26.688ZM662.752 30.768L661.264 31.248C661.696 33.024 662.08 34.896 662.392 36.84L664.12 36.408C663.712 34.296 663.256 32.4 662.752 30.768ZM655.912 30.864C655.408 33.456 654.808 35.616 654.112 37.296L655.792 37.896C656.488 36 657.064 33.792 657.544 31.296L655.912 30.864ZM683.104 28.224V37.296H697.792V28.224H691.552V25.512C694.408 26.424 697.192 27.456 699.928 28.632L701.392 27C698.464 25.896 695.176 24.864 691.552 23.904V23.4H700.384V21.288H691.552V19.272H689.344V21.288H680.512V23.4H687.4C685.576 24.792 682.888 25.968 679.36 26.928L680.584 28.944C684.544 27.504 687.472 25.704 689.344 23.496V28.224H683.104ZM695.584 35.28H685.312V33.768H695.584V35.28ZM685.312 31.848V30.24H695.584V31.848H685.312ZM680.032 38.736V40.824H700.792V38.736H680.032ZM707.416 40.056H709.984V41.088H712.072V32.712H705.28V41.472H707.416V40.056ZM709.984 37.992H707.416V34.728H709.984V37.992ZM704.8 22.2V24.312H712.528V22.2H709.936C709.696 21.312 709.36 20.328 708.88 19.248L706.72 19.848C707.104 20.592 707.44 21.384 707.776 22.2H704.8ZM705.568 25.776V27.768H711.784V25.776H705.568ZM705.568 29.112V31.08H711.784V29.112H705.568ZM714.208 27.36V37.464H721.432V26.064H715.192C715.672 25.344 716.128 24.552 716.536 23.736H723.688C723.64 31.56 723.544 36.144 723.4 37.488C723.256 38.64 722.704 39.24 721.744 39.24C720.928 39.24 719.944 39.192 718.816 39.12L719.368 41.208C720.664 41.28 721.552 41.328 722.08 41.328C724.12 41.328 725.272 40.392 725.512 38.52C725.752 36.384 725.872 30.744 725.872 21.624H717.376C717.616 20.952 717.808 20.232 717.976 19.488L715.768 19.176C715.144 22.056 713.92 24.48 712.12 26.448L713.464 28.2C713.704 27.936 713.944 27.648 714.208 27.36ZM719.368 35.544H716.32V32.64H719.368V35.544ZM716.32 30.792V28.008H719.368V30.792H716.32ZM731.056 20.232V22.464H739.552V30.96H730.096V33.144H739.552V41.448H741.856V33.144H751.504V30.96H741.856V22.464H750.592V20.232H731.056ZM734.416 23.592L732.28 24.624C733.168 26.208 734.008 28.008 734.8 30.024L736.936 28.968C736.12 27 735.28 25.224 734.416 23.592ZM747.376 23.496C746.704 25.248 745.816 27.024 744.688 28.848L746.752 29.904C747.856 28.128 748.768 26.328 749.464 24.48L747.376 23.496ZM774.208 31.296H757.792V41.496H760.096V40.512H771.904V41.496H774.208V31.296ZM760.096 38.328V33.48H771.904V38.328H760.096ZM756.232 29.064C762.376 28.824 767.968 28.488 772.984 28.056C773.536 28.944 774.088 29.88 774.664 30.888L776.896 29.784C775.144 26.88 773.296 24.24 771.352 21.84L769.288 22.824C770.08 23.832 770.872 24.888 771.64 26.04C767.824 26.4 763.888 26.664 759.808 26.808C761.824 24.984 763.792 22.728 765.736 20.04L763.36 19.224C760.144 23.928 757.624 26.496 755.8 26.904L756.232 29.064Z" fill="white"/>
<defs>
<linearGradient id="paint0_linear" x1="640" y1="0" x2="640" y2="53" gradientUnits="userSpaceOnUse">
<stop stop-color="#1D283C"/>
<stop offset="1" stop-color="#354C76"/>
</linearGradient>
<linearGradient id="paint1_linear" x1="-1" y1="70.0005" x2="1280" y2="70.0005" gradientUnits="userSpaceOnUse">
<stop stop-color="#142035"/>
<stop offset="0.505208" stop-color="#33649B"/>
<stop offset="1" stop-color="#142035"/>
</linearGradient>
</defs>
</svg>
