<svg width="1280" height="71" viewBox="0 0 1280 71" fill="none" xmlns="http://www.w3.org/2000/svg">
<path fill-rule="evenodd" clip-rule="evenodd" d="M399 0H0V30.3867H409.852L419 56H861L870.148 30.3867H1280V0H881H399Z" fill="url(#paint0_linear)"/>
<path d="M11.5 44H400L410 70H870.5L879.5 44H1263" stroke="url(#paint1_linear)"/>
<path opacity="0.87" d="M555.976 25.848V28.824H561.016L561.184 29.4H562.168C562.456 29.4 562.72 29.352 562.984 29.28C563.128 29.52 563.272 29.76 563.416 30.024H554.008V31.656H574.816V30.024H565.576C565.384 29.544 565.168 29.088 564.928 28.68L563.92 28.824C564.016 28.728 564.136 28.584 564.232 28.44C564.616 27.816 564.808 26.04 564.808 23.136H557.488L557.608 22.728L555.736 22.392C555.304 23.784 554.488 24.888 553.288 25.704L554.488 27.192C555.016 26.808 555.52 26.352 555.976 25.848ZM561.184 27.936V25.44H556.288C556.456 25.2 556.624 24.936 556.792 24.672H562.792C562.768 26.064 562.696 26.928 562.576 27.312C562.456 27.696 562.168 27.888 561.736 27.936H561.184ZM559.552 27.72H557.632V26.544H559.552V27.72ZM568.144 22.464H571.168C570.952 23.304 570.616 24.072 570.136 24.744C569.56 24.408 568.936 24.048 568.288 23.712L566.968 24.96C567.616 25.32 568.24 25.68 568.84 26.064C567.904 26.76 566.704 27.264 565.264 27.6L566.056 29.328C567.856 28.896 569.344 28.176 570.52 27.168C571.624 27.912 572.584 28.632 573.4 29.352L574.864 27.912C573.952 27.192 572.92 26.472 571.768 25.752C572.392 24.816 572.848 23.712 573.136 22.464H574.768V20.664H568.912C569.032 20.28 569.152 19.896 569.248 19.488L567.28 19.128C566.848 21 566.032 22.512 564.832 23.616L566.032 25.104C566.872 24.384 567.568 23.496 568.144 22.464ZM556.912 32.52V33.816H572.104V32.52H556.912ZM556.912 34.704V36.024H572.104V34.704H556.912ZM572.968 36.96H556.096V41.664H558.328V41.016H570.76V41.664H572.968V36.96ZM558.328 39.576V38.424H570.76V39.576H558.328ZM557.128 19.224V20.112H553.984V21.792H557.128V22.536H559V19.224H557.128ZM560.512 19.224V22.608H562.384V21.792H565.456V20.112H562.384V19.224H560.512ZM579.184 21.312V23.544H583.84V36.48C583.264 36.624 582.664 36.792 582.04 36.936V26.472H579.904V37.44C579.424 37.536 578.944 37.656 578.464 37.752L579.088 39.864C582.976 38.952 586.384 37.992 589.336 36.936V34.824C588.28 35.184 587.176 35.544 586.024 35.88V30.312H588.16L589.456 32.016C589.984 31.2 590.488 30.36 590.944 29.448C591.568 31.512 592.336 33.384 593.272 35.064C591.736 36.984 589.648 38.496 587.008 39.624L588.4 41.496C590.872 40.344 592.912 38.856 594.52 37.008C595.912 38.928 597.616 40.416 599.608 41.472L600.904 39.552C598.96 38.544 597.28 37.08 595.888 35.16C597.592 32.472 598.528 29.16 598.696 25.224H600.328V23.016H593.272C593.536 21.912 593.776 20.736 593.968 19.512L591.736 19.272C591.16 23.304 590.104 26.736 588.544 29.616V28.152H586.024V23.544H589.504V21.312H579.184ZM594.568 33.072C593.752 31.56 593.056 29.832 592.504 27.912L591.376 28.56C591.856 27.504 592.264 26.376 592.648 25.224H596.512C596.416 28.224 595.768 30.84 594.568 33.072ZM606.04 20.088V24.96H612.928V26.136H606.784V27.912H612.928V29.232H604.168V31.176H614.128C611.248 32.28 607.888 33.048 604.072 33.432L605.296 35.304C606.4 35.088 607.504 34.848 608.56 34.608V41.64H610.792V40.656H620.44V41.64H622.672V32.52H615.088C616.12 32.088 617.104 31.656 618.016 31.176H625.552V29.232H621.232C622.432 28.368 623.536 27.432 624.52 26.4L622.648 25.416C621.88 26.256 621.016 27.072 620.056 27.84V26.136H615.136V24.96H623.464V20.088H606.04ZM618.064 29.232H615.136V27.912H619.96C619.36 28.368 618.736 28.8 618.064 29.232ZM621.304 23.304H618.328V21.768H621.304V23.304ZM616.24 23.304H613.312V21.768H616.24V23.304ZM611.224 23.304H608.2V21.768H611.224V23.304ZM610.792 37.416H620.44V38.808H610.792V37.416ZM620.44 35.688H610.792V34.248H620.44V35.688ZM639.16 26.232H641.512V24.36H639.16V22.512C640.216 22.248 641.152 21.864 641.92 21.384L640.864 19.68C639.736 20.4 638.488 20.832 637.144 21V30.048H641.488V28.128H639.16V26.232ZM645.736 24.36V26.232H647.968V28.128H645.592V30.072H649.984V20.4H645.64V22.344H647.968V24.36H645.736ZM642.52 19.464V31.848H637V33.888H638.104C638.944 35.4 640.12 36.72 641.608 37.848C639.88 38.52 637.864 39.048 635.536 39.48L636.664 41.52C639.448 40.92 641.824 40.152 643.792 39.216C645.616 40.176 647.776 40.944 650.32 41.496L651.16 39.36C649.288 38.976 647.608 38.472 646.144 37.872C647.872 36.696 649.12 35.328 649.888 33.768V31.848H644.656V19.464H642.52ZM640.528 33.888H647.416C646.6 34.992 645.424 35.952 643.936 36.768C642.52 35.952 641.392 34.992 640.528 33.888ZM632.008 41.256C633.448 41.256 634.192 40.464 634.192 38.904V32.28C634.936 31.944 635.656 31.608 636.376 31.248V29.016C635.656 29.4 634.936 29.76 634.192 30.096V25.92H636.184V23.736H634.192V19.44H631.984V23.736H629.512V25.92H631.984V30.984C631.024 31.32 630.04 31.632 629.032 31.872L629.56 34.032C630.376 33.768 631.168 33.48 631.984 33.192V38.352C631.984 38.952 631.72 39.264 631.24 39.264C630.616 39.264 629.944 39.192 629.248 39.096L629.728 41.256H632.008ZM665.056 27.264V32.712H668.704V34.128H654.544V36.216H659.632L658.504 37.296C660.28 38.352 661.672 39.336 662.68 40.248L664.168 38.76C663.16 37.896 661.96 37.056 660.52 36.216H668.704V38.472C668.704 39.096 668.416 39.408 667.864 39.408C666.952 39.408 665.992 39.36 664.984 39.264L665.464 41.376H668.632C670.144 41.376 670.912 40.584 670.912 39V36.216H675.88V34.128H670.912V32.712H674.392V27.264H665.056ZM672.28 30.984H667.168V28.992H672.28V30.984ZM655.48 27.384V29.232H658.456V31.416C657.328 31.56 656.152 31.68 654.952 31.824L655.528 33.696C658.792 33.312 661.696 32.88 664.192 32.448V30.576C663.064 30.768 661.888 30.936 660.64 31.128V29.232H663.88V27.384H655.48ZM672.688 26.568V24.144H675.592V22.128H672.688V19.656H657.064V21.432H670.6V22.344H654.808V23.928H670.6V24.84H657.088V26.568H672.688ZM698.584 26.448H691.072C691.216 25.824 691.36 25.176 691.48 24.504H701.104V22.296H695.32C695.704 21.576 696.064 20.784 696.4 19.92L694.144 19.128C693.76 20.232 693.304 21.288 692.8 22.296H687.88C687.472 21.096 687.04 20.04 686.56 19.176L684.328 20.016C684.76 20.736 685.144 21.48 685.48 22.296H679.696V24.504H689.056C688.96 25.176 688.864 25.824 688.72 26.448H682.216V41.496H684.472V40.632H696.328V41.496H698.584V26.448ZM684.472 38.568V36.504H696.328V38.568H684.472ZM684.472 34.512V32.496H696.328V34.512H684.472ZM684.472 30.528V28.512H696.328V30.528H684.472ZM707.608 23.832V37.416H712.264C710.488 38.352 707.872 39.12 704.464 39.72L705.544 41.568C709 40.896 711.64 40.008 713.488 38.928L712.336 37.416H718.6L717.64 38.832C720.28 39.48 722.824 40.368 725.32 41.52L726.544 39.672C724.36 38.808 721.936 38.04 719.296 37.416H723.952V23.832H716.152C716.296 23.28 716.392 22.704 716.488 22.128H725.992V20.064H705.256V22.128H714.256C714.16 22.704 714.04 23.256 713.872 23.832H707.608ZM721.72 35.304H709.816V33.36H721.72V35.304ZM709.816 31.44V29.568H721.72V31.44H709.816ZM709.816 27.648V25.92H721.72V27.648H709.816Z" fill="white"/>
<defs>
<linearGradient id="paint0_linear" x1="640" y1="0" x2="640" y2="53" gradientUnits="userSpaceOnUse">
<stop stop-color="#1D283C"/>
<stop offset="1" stop-color="#354C76"/>
</linearGradient>
<linearGradient id="paint1_linear" x1="-1" y1="70.0005" x2="1280" y2="70.0005" gradientUnits="userSpaceOnUse">
<stop stop-color="#142035"/>
<stop offset="0.505208" stop-color="#33649B"/>
<stop offset="1" stop-color="#142035"/>
</linearGradient>
</defs>
</svg>
