<svg width="162" height="36" viewBox="0 0 162 36" fill="none" xmlns="http://www.w3.org/2000/svg">
<path d="M10 0H146L141 18L136 36H0L10 0Z" fill="#C12424" fill-opacity="0.87"/>
<path d="M149 0H154L144 36H139L149 0Z" fill="#C12424" fill-opacity="0.87"/>
<path d="M157 0H162L152 36H147L157 0Z" fill="#C12424" fill-opacity="0.87"/>
<g clip-path="url(#clip0)">
<path d="M24.4952 11.076H18.7656C18.1666 11.076 17.6698 11.1602 17.2891 11.3333L16.4997 10.3554C17.0523 10.435 17.6605 10.4724 18.3245 10.4724H24.6113C24.8109 9.50856 24.9363 8.35288 24.9827 7.00537L27.0628 7.84289C27.2486 7.90371 27.3414 8.01133 27.3414 8.15637C27.3414 8.30142 27.2021 8.44178 26.9235 8.56343C26.7703 8.67105 26.5614 9.30737 26.3014 10.4724H32.1703L33.4425 9.12022L34.9886 10.7017C35.0954 10.8093 35.1511 10.8982 35.1511 10.9684C35.1511 11.0385 35.0444 11.0713 34.8261 11.0713H26.1342C25.9485 11.8152 25.6792 12.5779 25.3263 13.3546H30.4569L31.6363 12.1662L32.9317 13.6072C33.0246 13.7336 33.071 13.8318 33.071 13.9114C33.071 13.9909 32.9689 14.0283 32.7692 14.0283H25.0245C24.6995 14.6974 24.3002 15.3805 23.8219 16.0777H33.41L34.6358 14.6787L36.1123 16.3771C36.2051 16.5035 36.2516 16.6017 36.2516 16.6813C36.2516 16.7608 36.1494 16.7982 35.9498 16.7982H29.1151C31.2091 19.1564 33.7721 20.429 36.8087 20.6162V20.9203C36.4373 20.9998 36.1262 21.1168 35.8708 21.2712C35.6155 21.4256 35.4437 21.697 35.3508 22.0853C35.3183 22.2725 35.2347 22.3661 35.0954 22.3661C34.7425 22.3661 33.8743 21.945 32.4953 21.0981C31.1163 20.2512 29.7744 18.8195 28.465 16.8029H23.3112C21.4632 19.1798 18.7609 21.1776 15.2043 22.8106L15 22.3895C17.8044 20.8688 20.061 19.0066 21.7697 16.8029H17.5166C16.9176 16.8029 16.4162 16.8731 16.0168 17.0135L15.2322 15.9654C15.8033 16.0449 16.4022 16.0824 17.0337 16.0824H22.2572C22.7215 15.446 23.1208 14.7629 23.4598 14.033H19.9681C19.3692 14.033 18.8724 14.1172 18.4916 14.2904L17.7069 13.2189C18.2455 13.3125 18.8538 13.3593 19.5317 13.3593H23.7616C24.1237 12.5171 24.3698 11.7591 24.4952 11.076ZM24.9363 19.5494C23.4412 19.657 22.1783 19.7225 21.1475 19.7365V19.409C24.6577 18.74 27.0303 18.1364 28.2654 17.5936L29.0733 18.7119C29.1522 18.7914 29.1894 18.8616 29.1894 18.9224C29.1894 19.0955 29.064 19.1564 28.8179 19.1096C28.7576 19.0955 28.6601 19.0862 28.5301 19.0862C28.4 19.0862 28.1122 19.1236 27.6757 19.2032C27.2346 19.2827 26.826 19.3435 26.4406 19.3903V21.7672H29.8116L30.9909 20.5787L32.2399 21.9543C32.3792 22.1087 32.4488 22.2351 32.4488 22.3286C32.4488 22.4222 32.3328 22.469 32.1006 22.469H26.436V22.6796C28.4372 23.1615 29.9369 23.62 30.9305 24.0551C31.9242 24.4903 32.5649 24.8973 32.8574 25.2763C33.15 25.6553 33.2985 26.0577 33.2985 26.4881C33.2985 26.9139 33.136 27.1291 32.8157 27.1291C32.5835 27.1291 32.3142 26.9888 32.0078 26.7081C31.2834 26.0577 30.4012 25.3839 29.3612 24.6961C28.3211 24.0037 27.3461 23.4562 26.4406 23.0539V24.4528C26.4406 25.805 26.4546 26.7642 26.4871 27.3397L26.5103 28.0836C26.5103 28.2848 26.306 28.4767 25.8974 28.6545C25.4888 28.8323 25.2149 28.9212 25.0756 28.9212C24.9363 28.9212 24.8666 28.7714 24.8666 28.4767L24.9131 27.0122C24.927 26.3899 24.9363 25.4073 24.9363 24.0551V22.8199C23.8869 24.013 22.5869 25.1266 21.0314 26.1513C19.476 27.1759 18.0645 27.8684 16.8015 28.224L16.639 27.8731C19.4574 26.432 21.7511 24.6306 23.5248 22.4737H20.0146C19.4435 22.4737 18.9513 22.5439 18.5381 22.6842L17.7766 21.683C18.3616 21.7438 18.9699 21.7765 19.6013 21.7765H24.9363V19.5494Z" fill="white"/>
<path d="M44.1543 17.1487V24.7378C44.1543 25.7765 44.1636 26.5439 44.1868 27.0445C44.21 27.5451 44.2193 27.8118 44.2193 27.8586C44.2193 28.1393 44.001 28.3967 43.5599 28.64C43.1189 28.8833 42.8263 29.0003 42.6685 29.0003C42.5106 29.0003 42.4363 28.8365 42.4363 28.5137L42.5756 26.5579C42.622 25.7531 42.6453 24.9671 42.6453 24.2044V18.3371C41.6284 19.5162 40.2215 20.8029 38.4154 22.2019L38.3225 21.7574C41.0341 19.2261 43.0585 16.2878 44.4004 12.9331H40.8205C40.1751 12.9331 39.6504 13.0126 39.2511 13.167L38.4432 12.1189C39.0143 12.1985 39.6504 12.2359 40.3608 12.2359H44.4746L45.3058 11.1644L46.8519 12.3997C47.0051 12.5073 47.0841 12.6149 47.0841 12.7272C47.0841 12.8348 46.9912 12.9143 46.8055 12.9611C46.3876 13.022 45.9697 13.415 45.5472 14.1355C45.1247 14.8561 44.6557 15.6 44.1496 16.358V16.5919C45.1525 16.9662 45.9047 17.3452 46.4155 17.7336C46.9216 18.1219 47.1769 18.5196 47.1769 18.9314C47.1769 19.3431 47.0794 19.6706 46.8891 19.9233C46.6941 20.1713 46.4898 20.2976 46.2669 20.2976C46.044 20.2976 45.8629 20.087 45.7236 19.6706C45.4822 18.8097 44.9575 17.9722 44.1543 17.1487ZM41.4984 7.14062C43.4996 7.9641 44.5025 8.85777 44.5025 9.81693C44.5025 10.1912 44.3864 10.5141 44.1543 10.7948C43.9221 11.0755 43.6528 11.2159 43.3464 11.2159C43.1467 11.2159 42.9935 10.9913 42.8821 10.5422C42.5106 8.92795 42.0138 7.90328 41.3823 7.46815L41.4984 7.14062ZM50.2321 9.23675H55.7063L56.4446 8.07172L57.8747 9.09639C58.1533 9.29758 58.2926 9.45198 58.2926 9.56427C58.2926 9.67189 58.1858 9.79822 57.9675 9.93858L57.5775 10.1912V17.5932C57.5775 18.2763 57.5915 18.8892 57.624 19.432L57.6936 20.8076C57.6936 21.0415 57.4568 21.2567 56.9786 21.4579C56.5003 21.6591 56.2171 21.7621 56.1242 21.7621C56.0314 21.7621 55.9849 21.6778 55.9849 21.5047V20.6204H54.8056V25.7672C54.8056 26.2772 54.8706 26.5953 55.0006 26.7217C55.1306 26.8433 55.5206 26.9088 56.166 26.9088C56.8114 26.9088 57.2432 26.8573 57.4614 26.7591C57.675 26.6561 57.8329 26.3801 57.935 25.9216C58.0372 25.463 58.1393 24.5741 58.2461 23.2546L58.5944 23.278C58.6083 24.3167 58.6965 25.0466 58.859 25.4677C59.0215 25.8888 59.2769 26.1742 59.6344 26.3286C59.7876 26.3895 59.8666 26.4737 59.8666 26.5719C59.8666 26.6702 59.7598 26.8994 59.5416 27.2597C59.328 27.6153 59.0308 27.8633 58.6501 27.9943C58.274 28.1253 57.5636 28.1908 56.5235 28.1908C55.4835 28.1908 54.7592 28.1534 54.3506 28.0738C53.942 27.9943 53.6727 27.8352 53.5427 27.5872C53.4126 27.3393 53.3476 26.9041 53.3476 26.2818V20.6204H52.0754C51.9965 23.292 51.4022 25.2385 50.2832 26.4643C49.1642 27.6902 47.2977 28.5137 44.6789 28.9301L44.5629 28.6493C46.5965 28.1066 48.0916 27.2083 49.0435 25.959C50 24.7097 50.4968 22.9271 50.5432 20.6157H49.6424V21.4533C49.6424 21.5936 49.5774 21.6966 49.4474 21.7667C49.3174 21.8369 49.0945 21.9399 48.7788 22.0802C48.4631 22.2206 48.2263 22.2908 48.0731 22.2908C47.9198 22.2908 47.8595 22.1457 47.8873 21.8463C48.0266 20.5736 48.0963 19.3571 48.0963 18.1921V10.6311C48.0963 9.60638 48.0638 8.66125 48.0034 7.79099L50.2321 9.23675ZM55.9849 12.774V9.88712H49.6564V12.774H55.9849ZM55.9849 16.358V13.4243H49.6564V16.358H55.9849ZM55.9849 19.9654V17.0317H49.6564V19.9654H55.9849Z" fill="white"/>
<path d="M66.6827 21.6453C66.808 21.7389 66.8684 21.8418 66.8684 21.9494C66.8684 22.057 66.7616 22.1366 66.5434 22.1834C66.4366 22.2302 66.2044 22.4922 65.8516 22.9741C64.9601 24.1859 63.6089 25.5288 61.8074 27.0026L61.5288 26.7453C62.4389 25.6878 63.1632 24.7427 63.7111 23.9052C64.259 23.0677 64.7929 21.9822 65.3176 20.644L66.6827 21.6453ZM68.8092 16.522V19.3854H70.6108L71.6972 18.1268L72.9462 19.6147C73.0391 19.755 73.0855 19.858 73.0855 19.9282C73.0855 19.9983 72.9787 20.0311 72.7605 20.0311H68.8092V25.2948C68.8092 26.1323 68.7396 26.6938 68.6003 26.9839C68.461 27.2693 68.1685 27.5734 67.7227 27.8916C67.277 28.2097 66.9984 28.3688 66.8916 28.3688C66.7848 28.3688 66.692 28.2378 66.613 27.9711C66.5341 27.536 66.3205 27.2085 65.9676 26.9839C65.6148 26.7593 65.104 26.5441 64.4447 26.3429L64.5143 26.0154C65.4244 26.1089 66.0559 26.1557 66.4087 26.1557C66.7616 26.1557 66.9891 26.1043 67.0913 26.006C67.1934 25.9031 67.2398 25.7159 67.2398 25.4352V20.0358H65.0204C64.4354 20.0358 63.9247 20.106 63.4975 20.2463L62.6896 19.2684C63.1214 19.348 63.7436 19.3854 64.5608 19.3854H67.2398V16.522H64.375C63.7761 16.522 63.2653 16.6062 62.8521 16.7793L62.0442 15.778C62.5967 15.8576 63.2143 15.895 63.8922 15.895H68.6281C69.2735 14.2948 69.6682 12.7976 69.8075 11.4033L71.5394 12.2642C71.753 12.3578 71.8644 12.442 71.8644 12.5215C71.8644 12.6011 71.753 12.6993 71.5301 12.8257C71.3072 12.952 71.0565 13.2 70.7779 13.5696C70.4993 13.9439 70.0164 14.7206 69.3246 15.8997H71.0565L72.1894 14.5241L73.5545 16.1289C73.6613 16.2693 73.717 16.3676 73.717 16.4331C73.717 16.4939 73.6102 16.5266 73.392 16.5266H68.8092V16.522ZM73.0113 10.8418C73.0902 10.9354 73.1273 11.029 73.1273 11.1226C73.1273 11.2161 73.0252 11.2629 72.8255 11.2629H64.9694C64.3379 11.2629 63.8272 11.3331 63.4464 11.4735L62.6385 10.4722C63.191 10.5658 63.7993 10.6126 64.4633 10.6126H70.5643L71.6972 9.28376L73.0113 10.8418ZM65.1551 11.7729C66.6037 12.5777 67.3281 13.2795 67.3281 13.869C67.3281 14.2246 67.1934 14.5709 66.9241 14.9031C66.6548 15.2353 66.4041 15.4037 66.1719 15.4037C65.9398 15.4037 65.7773 15.3335 65.6751 15.1932C65.573 15.0528 65.5312 14.8563 65.5498 14.5989C65.5637 14.3416 65.573 14.1217 65.573 13.9345C65.573 13.2655 65.364 12.6291 64.9508 12.0256L65.1551 11.7729ZM66.7988 7.25781C67.6438 7.53854 68.2753 7.80524 68.6839 8.06258C69.0925 8.31991 69.2968 8.61468 69.2968 8.94688C69.2968 9.27908 69.1528 9.6066 68.8696 9.92476C68.5864 10.2429 68.2892 10.402 67.9781 10.402C67.6717 10.402 67.472 10.14 67.3791 9.61128C67.2398 8.80651 66.9798 8.11404 66.5945 7.53854L66.7988 7.25781ZM69.7982 21.0371C70.9079 21.5049 71.6601 21.912 72.0501 22.2582C72.4448 22.6092 72.6398 22.9741 72.6398 23.3531C72.6398 23.7321 72.5562 24.0502 72.3844 24.2982C72.2126 24.5462 72.0455 24.6725 71.8783 24.6725C71.5069 24.6725 71.2144 24.359 71.0008 23.7321C70.7826 23.1051 70.5968 22.6606 70.4343 22.4033C70.2718 22.1459 69.9607 21.7997 69.4964 21.3693L69.7982 21.0371ZM75.9225 16.288C75.89 19.8252 75.4907 22.436 74.7199 24.1111C73.9492 25.7861 72.403 27.2599 70.0768 28.5326L69.8446 28.2285C71.2747 27.0354 72.3055 25.9826 72.9277 25.0749C73.5499 24.1672 73.9538 23.063 74.1395 21.7576C74.3253 20.4522 74.4181 18.6087 74.4181 16.2178C74.4181 13.8269 74.3949 11.3892 74.3485 8.90945L76.15 10.3505C77.7658 9.85458 79.3909 9.13404 81.0253 8.18423L82.4368 9.81247C82.5622 9.95284 82.6225 10.0745 82.6225 10.1727C82.6225 10.271 82.5761 10.3225 82.4832 10.3225C82.3904 10.3225 82.2603 10.285 82.0886 10.2195C81.9168 10.1493 81.7171 10.1166 81.4896 10.1166C81.2621 10.1166 81.0346 10.1306 80.821 10.1634L75.9689 10.9775C75.9689 11.815 75.955 13.3731 75.9225 15.6564H80.3567L81.6521 14.0983L83.1518 15.8903C83.2586 16.0166 83.3143 16.1102 83.3143 16.1804C83.3143 16.2506 83.2075 16.2833 82.9893 16.2833H79.9852V23.2923L80.0316 27.6015C80.0316 27.8822 79.8134 28.1255 79.3723 28.3361C78.9312 28.5466 78.6387 28.6496 78.4808 28.6496C78.3276 28.6496 78.2487 28.4764 78.2487 28.1396L78.3416 26.0668C78.388 25.1357 78.4112 24.0362 78.4112 22.7589V16.288H75.9225Z" fill="white"/>
<path d="M88.0967 14.7531V23.5307C88.0967 25.0045 88.106 26.0947 88.1292 26.8012C88.1524 27.5077 88.1617 27.9475 88.1617 28.13C88.1617 28.3078 88.1013 28.4481 87.976 28.5511C87.8506 28.6493 87.6184 28.7523 87.2702 28.8552C86.922 28.9535 86.6759 29.0049 86.5319 29.0049C86.3834 29.0049 86.3137 28.8739 86.3137 28.6072L86.4298 26.1415C86.4762 25.0419 86.4994 23.9985 86.4994 23.0207V11.6089C86.4994 10.4158 86.4669 9.13381 86.4066 7.76758L88.1153 9.07298H92.2058L92.8512 8.16528L94.3974 9.26013C94.5228 9.33967 94.5831 9.41922 94.5831 9.50343C94.5831 9.58765 94.5228 9.66252 94.3974 9.72334L93.9145 10.0041V12.3575C93.9145 12.8675 93.9284 13.3495 93.9609 13.7986L94.0538 14.8935C94.0538 15.1415 93.8402 15.3941 93.4177 15.6515C92.9952 15.9088 92.7073 16.0351 92.5634 16.0351C92.4148 16.0351 92.3451 15.9275 92.3451 15.7076V14.7531H88.0967ZM88.0967 9.72334V11.5621H92.3498V9.72334H88.0967ZM88.0967 12.2172V14.1028H92.3498V12.2172H88.0967V12.2172ZM91.839 24.181V17.406C91.0358 17.3592 90.3625 17.4435 89.8054 17.6634L88.9742 16.6621C89.5593 16.7557 90.2047 16.8025 90.9151 16.8025H99.0452L100.085 15.5204L101.288 16.8492C101.381 16.9756 101.427 17.0972 101.427 17.2236C101.427 17.3499 101.325 17.4107 101.125 17.4107H98.5391V23.5821L99.7184 23.4885L100.573 22.3001L101.752 23.4652C101.938 23.6383 102.031 23.7646 102.031 23.8488C102.031 23.933 101.882 23.9939 101.59 24.0219L98.5391 24.3027C98.5391 24.953 98.5484 25.4817 98.5623 25.8841L98.6087 26.8854C98.6087 27.227 98.3858 27.503 97.9401 27.7136C97.4944 27.9241 97.2158 28.027 97.109 28.027C96.9697 28.027 96.9 27.9475 96.9 27.7837C96.9 27.62 96.9279 27.1802 96.979 26.469C97.0347 25.7531 97.0672 25.07 97.0811 24.4196L90.8222 24.9764C90.2697 25.0232 89.745 25.1402 89.2528 25.3273L88.4217 24.3495C88.7142 24.3822 89.0253 24.3962 89.3596 24.3962C89.6893 24.3962 90.0189 24.3822 90.3393 24.3495L91.839 24.181ZM93.2505 17.406V19.1045H97.0858V17.406H93.2505ZM93.2505 19.7127V21.3877H97.0858V19.7127H93.2505ZM93.2505 21.9913V24.064L97.0858 23.7365V21.9913H93.2505ZM97.9169 9.0028H102.212L102.996 7.86116L104.519 9.0028C104.659 9.11041 104.728 9.20399 104.728 9.28353C104.728 9.36307 104.659 9.45665 104.519 9.56426L104.078 9.89178V26.352C104.078 27.2831 103.735 27.9475 103.052 28.3405C102.365 28.7382 101.956 28.9347 101.817 28.9347C101.692 28.9347 101.604 28.771 101.552 28.4481C101.497 28.1206 101.339 27.8539 101.07 27.6434C100.8 27.4328 100.234 27.2036 99.3702 26.9556L99.347 26.5579C100.271 26.6655 100.953 26.7216 101.39 26.7216C101.826 26.7216 102.124 26.6608 102.267 26.5345C102.411 26.4082 102.486 26.1929 102.486 25.8841V14.7297H98.0051C97.9912 15.0105 97.7962 15.235 97.4294 15.4035C97.0579 15.5766 96.7979 15.6608 96.6447 15.6608C96.4914 15.6608 96.4125 15.5204 96.4125 15.2397L96.4822 12.8629V10.2848C96.4822 9.66252 96.4589 8.94197 96.4125 8.11849L97.9169 9.0028ZM102.49 11.5153V9.65316H98.0097V11.5153H102.49ZM102.49 14.0794V12.1704H98.0097V14.0794H102.49Z" fill="white"/>
<path d="M109.928 21.7855C110.128 23.0254 110.23 24.0547 110.23 24.8689C110.23 25.683 110.072 26.2725 109.757 26.6375C109.441 27.0024 109.116 27.1849 108.786 27.1849C108.457 27.1849 108.224 27.11 108.094 26.965C107.964 26.8153 107.899 26.6702 107.899 26.5205C107.899 26.3708 108.053 26.09 108.364 25.6689C109.042 24.7238 109.455 23.4278 109.613 21.7808H109.928V21.7855ZM113.578 16.4282C114.316 16.985 114.878 17.5324 115.263 18.0564C115.649 18.5851 115.839 19.0156 115.839 19.3478C115.839 19.68 115.728 19.9935 115.505 20.2789C115.282 20.5643 115.045 20.7093 114.799 20.7093C114.553 20.7093 114.414 20.5128 114.381 20.1151C114.349 19.7174 114.321 19.4461 114.288 19.287C112.134 19.7221 110.56 20.2508 109.576 20.8684C109.515 20.9152 109.45 20.9386 109.39 20.9386C109.329 20.9386 109.26 20.8778 109.181 20.7515L108.118 19.3291C108.749 19.2355 109.353 18.8378 109.933 18.1313C110.509 17.4248 111.284 16.2878 112.255 14.7204C111.345 14.828 110.37 15.1696 109.32 15.7451C109.213 15.8059 109.107 15.8386 109.009 15.8386C108.907 15.8386 108.819 15.7825 108.744 15.6749L107.913 14.2525C108.392 14.1449 108.805 13.8876 109.162 13.4852C109.515 13.0828 110.054 12.1891 110.778 10.8089C111.502 9.42861 111.995 8.27761 112.255 7.36523L113.963 8.46009C114.163 8.5677 114.265 8.67532 114.265 8.78761C114.265 8.89522 114.149 8.9654 113.917 8.99816C113.685 9.03091 113.369 9.32568 112.97 9.88246C111.892 11.3891 110.797 12.8067 109.687 14.1449L112.598 14.0981C113.104 13.1811 113.606 12.1424 114.098 10.9773L115.528 12.0956C115.714 12.25 115.807 12.3623 115.807 12.4324C115.807 12.5026 115.723 12.5541 115.551 12.5822C115.273 12.629 114.929 12.9705 114.511 13.6068C113.295 15.4363 111.879 17.2844 110.258 19.1466L114.209 18.7723C114.056 17.9675 113.778 17.2517 113.378 16.6294L113.578 16.4282ZM111.665 21.6217C112.649 22.9739 113.141 24.1202 113.141 25.0654C113.141 25.5005 113.049 25.8467 112.863 26.0994C112.677 26.3567 112.468 26.4831 112.227 26.4831C111.99 26.4831 111.832 26.4176 111.753 26.2865C111.674 26.1555 111.656 25.9216 111.697 25.5894C111.735 25.2572 111.753 24.8408 111.753 24.3448C111.753 23.3529 111.646 22.492 111.428 21.7621L111.665 21.6217ZM113.601 21.2708C114.479 21.8931 115.096 22.4265 115.449 22.8757C115.802 23.3248 115.978 23.7506 115.978 24.1577C115.978 24.56 115.895 24.9203 115.723 25.2385C115.551 25.5566 115.352 25.7157 115.11 25.7157C114.873 25.7157 114.72 25.5192 114.66 25.1355C114.521 23.6009 114.098 22.3563 113.388 21.4112L113.601 21.2708ZM128.622 9.81696L128.116 10.2147V25.931C128.116 26.6281 128.009 27.1334 127.791 27.4422C127.577 27.751 127.201 28.0505 126.672 28.3406C126.142 28.626 125.817 28.771 125.701 28.771C125.585 28.771 125.52 28.6634 125.506 28.4435C125.474 27.868 125.237 27.4375 124.791 27.1521C124.345 26.8667 123.705 26.6375 122.873 26.4643L122.897 26.1134C124.006 26.2819 124.782 26.3708 125.232 26.3708C125.678 26.3708 126.022 26.3193 126.258 26.221C126.495 26.1181 126.616 25.8514 126.616 25.4163V9.88714H117.998V23.1798C117.998 24.6396 118.007 25.7344 118.031 26.4643C118.054 27.1942 118.063 27.5919 118.063 27.6528C118.063 28.0084 117.85 28.2751 117.418 28.4435C116.986 28.6166 116.707 28.7008 116.573 28.7008C116.443 28.7008 116.378 28.5511 116.378 28.2563L116.494 25.7438C116.54 24.6396 116.563 23.6102 116.563 22.6464V11.9365C116.563 10.7714 116.531 9.49412 116.471 8.09514L118.272 9.28357H126.379L127.141 8.28229L128.617 9.33036C128.756 9.42393 128.826 9.50347 128.826 9.5643C128.826 9.62512 128.761 9.70934 128.622 9.81696ZM126.124 18.8752C126.23 18.9688 126.286 19.053 126.286 19.1326C126.286 19.2121 126.184 19.2495 125.984 19.2495H120.877V22.623H123.324L124.317 21.5749L125.427 22.7634C125.553 22.9037 125.613 23.016 125.613 23.1002C125.613 23.1845 125.52 23.2266 125.334 23.2266H120.923L120.44 23.9471C120.348 24.0734 120.269 24.1343 120.199 24.1343C120.129 24.1343 120.027 24.0641 119.888 23.9237L119.01 23.0862C119.41 22.7914 119.609 22.4405 119.609 22.0381V19.315C119.317 19.3946 119.094 19.4554 118.941 19.5022L118.133 18.5477C118.685 18.6273 119.312 18.6647 120.004 18.6647H123.979L124.903 17.5464L126.124 18.8752ZM126.008 14.8467C126.1 14.9731 126.147 15.0666 126.147 15.1368C126.147 15.207 126.045 15.2398 125.845 15.2398H120.668C120.083 15.2398 119.558 15.324 119.099 15.4971L118.291 14.5192C118.862 14.6128 119.484 14.6596 120.162 14.6596H122.335C122.934 13.0781 123.389 11.5809 123.7 10.1679L125.153 10.9352C125.353 11.0288 125.455 11.1317 125.455 11.2487C125.455 11.3657 125.348 11.4499 125.13 11.506C124.916 11.5622 124.652 11.7774 124.345 12.1564C124.039 12.5354 123.5 13.3729 122.73 14.6596H124.002L124.972 13.6115L126.008 14.8467ZM119.243 10.5375C120.784 11.2066 121.555 11.9037 121.555 12.6336C121.555 12.8956 121.471 13.167 121.299 13.4478C121.128 13.7285 120.951 13.8689 120.77 13.8689C120.589 13.8689 120.454 13.6583 120.375 13.2419C120.204 12.3716 119.767 11.5481 119.057 10.7761L119.243 10.5375ZM120.905 15.7076C121.689 15.9229 122.219 16.1428 122.488 16.358C122.757 16.5732 122.892 16.8259 122.892 17.116C122.892 17.4014 122.813 17.6728 122.651 17.9301C122.488 18.1874 122.307 18.3138 122.107 18.3138C121.908 18.3138 121.792 18.15 121.759 17.8272C121.727 17.4996 121.652 17.2049 121.527 16.9429C121.402 16.6808 121.165 16.3159 120.812 15.848L120.905 15.7076Z" fill="white"/>
</g>
<defs>
<clipPath id="clip0">
<rect width="113.826" height="22" fill="white" transform="translate(15 7)"/>
</clipPath>
</defs>
</svg>
