<svg width="543" height="544" viewBox="0 0 543 544" fill="none" xmlns="http://www.w3.org/2000/svg">
<g opacity="0.12">
<path d="M194.681 169.044L186.738 176.161L97.7608 80.8442C97.7608 80.8442 90.9108 73.1926 96.6677 67.7029C103.906 60.7801 111.121 68.8689 111.121 68.8689L194.681 169.044Z" fill="#DCDDDD" stroke="black" stroke-width="0.5314" stroke-miterlimit="10"/>
<path d="M219.433 192.509L216.008 194.379L128.804 89.8565C128.804 89.8565 122.246 81.3305 127.687 76.7881C134.537 71.0798 141.484 80.0916 141.484 80.0916L219.433 192.509Z" fill="#DCDDDD" stroke="black" stroke-width="0.5314" stroke-miterlimit="10"/>
<path d="M242.412 218.549L240.444 219.447L177.458 104.965C177.458 104.965 173.159 95.6377 179.499 92.4313C187.466 88.3991 192.009 98.2368 192.009 98.2368L242.412 218.549Z" fill="#DCDDDD" stroke="black" stroke-width="0.5314" stroke-miterlimit="10"/>
<path d="M240.979 192.266L233.133 195.156L199.369 115.556C199.369 115.556 197.012 109.167 201.822 107.224C207.87 104.771 210.348 111.499 210.348 111.499L240.979 192.266Z" fill="#DCDDDD" stroke="black" stroke-width="0.5314" stroke-miterlimit="10"/>
<path d="M247.804 190.031L240.979 192.241L210.591 111.718C210.591 111.718 208.235 105.329 213.384 103.265C219.87 100.641 222.348 107.394 222.348 107.394L247.804 190.031Z" fill="#DCDDDD" stroke="black" stroke-width="0.5314" stroke-miterlimit="10"/>
<path d="M232.72 205.383L229.756 207.666L156.666 100.35C156.666 100.35 150.399 92.2123 155.864 87.6942C162.738 81.9859 169.345 90.5848 169.345 90.5848L232.72 205.383Z" fill="#DCDDDD" stroke="black" stroke-width="0.5314" stroke-miterlimit="10"/>
<path d="M348.659 169.846L356.602 176.963L445.579 81.6461C445.579 81.6461 452.429 73.9946 446.672 68.5049C439.433 61.582 432.219 69.6708 432.219 69.6708L348.659 169.846Z" fill="#DCDDDD" stroke="black" stroke-width="0.5314" stroke-miterlimit="10"/>
<path d="M323.931 193.31L327.356 195.205L414.56 90.6823C414.56 90.6823 421.118 82.1563 415.677 77.6139C408.827 71.9056 401.88 80.9174 401.88 80.9174L323.931 193.31Z" fill="#DCDDDD" stroke="black" stroke-width="0.5314" stroke-miterlimit="10"/>
<path d="M299.932 221.803L302.92 220.273L365.906 105.767C365.906 105.767 370.205 96.4392 363.865 93.2328C355.898 89.2005 351.355 99.0383 351.355 99.0383L299.932 221.803Z" fill="#DCDDDD" stroke="black" stroke-width="0.5314" stroke-miterlimit="10"/>
<path d="M310.62 206.208L313.583 208.492L386.674 101.151C386.674 101.151 392.941 93.0138 387.476 88.4957C380.601 82.7874 373.994 91.3863 373.994 91.3863L310.62 206.208Z" fill="#DCDDDD" stroke="black" stroke-width="0.5314" stroke-miterlimit="10"/>
<path d="M278.994 142.3L271.269 142.154L271.318 11.7618C271.318 11.7618 271.536 1.51114 279.479 1.41398C289.487 1.29252 289.244 12.1262 289.244 12.1262L278.994 142.3Z" fill="#DCDDDD" stroke="black" stroke-width="0.5314" stroke-miterlimit="10"/>
<path d="M284.022 176.404H275.714L287.86 39.5504C287.86 39.5504 288.88 28.8382 295.973 29.2511C304.887 29.7612 303.794 41.0564 303.794 41.0564L284.022 176.404Z" fill="#DCDDDD" stroke="black" stroke-width="0.5314" stroke-miterlimit="10"/>
<path d="M283.026 211.115L280.961 210.435L313.073 83.7592C313.073 83.7592 316.28 74.0187 323.105 75.9862C331.68 78.4639 328.279 88.7631 328.279 88.7631L283.026 211.115Z" fill="#DCDDDD" stroke="black" stroke-width="0.5314" stroke-miterlimit="10"/>
<path d="M299.932 190.93L292.208 187.699L321.867 106.471C321.867 106.471 324.49 100.204 329.348 102.05C335.445 104.382 332.652 110.989 332.652 110.989L299.932 190.93Z" fill="#DCDDDD" stroke="black" stroke-width="0.5314" stroke-miterlimit="10"/>
<path d="M310.62 195.933L299.908 190.929L332.7 111.329C332.7 111.329 335.324 105.062 340.522 107.054C347.056 109.556 344.263 116.187 344.263 116.187L310.62 195.933Z" fill="#DCDDDD" stroke="black" stroke-width="0.5314" stroke-miterlimit="10"/>
<path d="M284.92 194.889L281.204 194.525L301.049 66.1972C301.049 66.1972 302.021 55.9708 309.114 56.3838C318.029 56.8939 316.984 67.7032 316.984 67.7032L284.92 194.889Z" fill="#DCDDDD" stroke="black" stroke-width="0.5314" stroke-miterlimit="10"/>
<path d="M264.152 141.887L271.876 141.741L271.828 11.3488C271.828 11.3488 271.609 1.09818 263.666 1.00101C253.658 0.87956 253.901 11.7132 253.901 11.7132L264.152 141.887Z" fill="#DCDDDD" stroke="black" stroke-width="0.5314" stroke-miterlimit="10"/>
<path d="M259.124 175.967H267.431L255.286 39.1131C255.286 39.1131 254.266 28.4009 247.173 28.8138C238.258 29.3239 239.351 40.6191 239.351 40.6191L259.124 175.967Z" fill="#DCDDDD" stroke="black" stroke-width="0.5314" stroke-miterlimit="10"/>
<path d="M256.403 212.33L262.184 209.998L230.048 83.3463C230.048 83.3463 226.841 73.6058 220.016 75.5733C211.441 78.051 216.129 88.3502 216.129 88.3502L256.403 212.33Z" fill="#DCDDDD" stroke="black" stroke-width="0.5314" stroke-miterlimit="10"/>
<path d="M258.201 194.452L261.917 194.088L242.072 65.7599C242.072 65.7599 241.1 55.5335 234.007 55.9464C225.093 56.4565 226.137 67.2659 226.137 67.2659L258.201 194.452Z" fill="#DCDDDD" stroke="black" stroke-width="0.5314" stroke-miterlimit="10"/>
<path d="M348.659 374.956L356.602 367.839L445.579 463.155C445.579 463.155 452.429 470.807 446.672 476.297C439.433 483.22 432.219 475.131 432.219 475.131L348.659 374.956Z" fill="#DCDDDD" stroke="black" stroke-width="0.5314" stroke-miterlimit="10"/>
<path d="M323.931 351.491L327.356 349.596L414.56 454.119C414.56 454.119 421.118 462.645 415.677 467.188C408.827 472.896 401.88 463.884 401.88 463.884L323.931 351.491Z" fill="#DCDDDD" stroke="black" stroke-width="0.5314" stroke-miterlimit="10"/>
<path d="M300.952 325.427L302.92 324.529L365.906 439.035C365.906 439.035 370.205 448.362 363.865 451.569C355.898 455.601 351.355 445.763 351.355 445.763L300.952 325.427Z" fill="#DCDDDD" stroke="black" stroke-width="0.5314" stroke-miterlimit="10"/>
<path d="M302.385 351.734L310.231 348.844L343.995 428.444C343.995 428.444 346.351 434.833 341.542 436.776C335.494 439.229 333.016 432.501 333.016 432.501L302.385 351.734Z" fill="#DCDDDD" stroke="black" stroke-width="0.5314" stroke-miterlimit="10"/>
<path d="M295.56 353.945L302.385 351.734L332.773 432.282C332.773 432.282 335.129 438.671 329.98 440.76C323.494 443.383 321.016 436.63 321.016 436.63L295.56 353.945Z" fill="#DCDDDD" stroke="black" stroke-width="0.5314" stroke-miterlimit="10"/>
<path d="M310.62 338.593L313.583 336.31L386.674 443.65C386.674 443.65 392.941 451.787 387.476 456.305C380.601 462.014 373.994 453.415 373.994 453.415L310.62 338.593Z" fill="#DCDDDD" stroke="black" stroke-width="0.5314" stroke-miterlimit="10"/>
<path d="M194.681 374.13L186.738 367.013L97.7608 462.329C97.7608 462.329 90.9108 469.981 96.6677 475.471C103.906 482.394 111.121 474.305 111.121 474.305L194.681 374.13Z" fill="#DCDDDD" stroke="black" stroke-width="0.5314" stroke-miterlimit="10"/>
<path d="M219.433 350.69L216.008 348.795L128.804 453.318C128.804 453.318 122.246 461.844 127.687 466.386C134.537 472.095 141.484 463.083 141.484 463.083L219.433 350.69Z" fill="#DCDDDD" stroke="black" stroke-width="0.5314" stroke-miterlimit="10"/>
<path d="M243.432 322.172L240.444 323.703L177.458 438.209C177.458 438.209 173.159 447.537 179.499 450.743C187.466 454.775 192.009 444.937 192.009 444.937L243.432 322.172Z" fill="#DCDDDD" stroke="black" stroke-width="0.5314" stroke-miterlimit="10"/>
<path d="M232.72 337.791L229.756 335.508L156.666 442.849C156.666 442.849 150.399 450.986 155.864 455.504C162.738 461.212 169.345 452.613 169.345 452.613L232.72 337.791Z" fill="#DCDDDD" stroke="black" stroke-width="0.5314" stroke-miterlimit="10"/>
<path d="M264.371 401.676L272.095 401.822L272.046 532.214C272.046 532.214 271.828 542.465 263.885 542.562C253.877 542.683 254.12 531.85 254.12 531.85L264.371 401.676Z" fill="#DCDDDD" stroke="black" stroke-width="0.5314" stroke-miterlimit="10"/>
<path d="M259.342 367.596H267.65L255.504 504.449C255.504 504.449 254.484 515.162 247.391 514.749C238.477 514.239 239.57 502.943 239.57 502.943L259.342 367.596Z" fill="#DCDDDD" stroke="black" stroke-width="0.5314" stroke-miterlimit="10"/>
<path d="M260.338 332.86L262.403 333.54L230.291 460.216C230.291 460.216 227.084 469.957 220.259 467.989C211.684 465.512 215.085 455.212 215.085 455.212L260.338 332.86Z" fill="#DCDDDD" stroke="black" stroke-width="0.5314" stroke-miterlimit="10"/>
<path d="M243.432 353.07L251.156 356.301L221.497 437.529C221.497 437.529 218.874 443.796 214.016 441.95C207.919 439.618 210.712 433.011 210.712 433.011L243.432 353.07Z" fill="#DCDDDD" stroke="black" stroke-width="0.5314" stroke-miterlimit="10"/>
<path d="M232.72 348.066L243.432 353.07L210.64 432.671C210.64 432.671 208.016 438.938 202.818 436.946C196.284 434.444 199.077 427.813 199.077 427.813L232.72 348.066Z" fill="#DCDDDD" stroke="black" stroke-width="0.5314" stroke-miterlimit="10"/>
<path d="M258.419 349.086L262.136 349.451L242.29 477.778C242.29 477.778 241.319 488.005 234.226 487.592C225.311 487.082 226.356 476.272 226.356 476.272L258.419 349.086Z" fill="#DCDDDD" stroke="black" stroke-width="0.5314" stroke-miterlimit="10"/>
<path d="M279.212 402.113L271.488 402.259L271.536 532.651C271.536 532.651 271.755 542.902 279.698 542.999C289.706 543.12 289.463 532.287 289.463 532.287L279.212 402.113Z" fill="#DCDDDD" stroke="black" stroke-width="0.5314" stroke-miterlimit="10"/>
<path d="M284.24 368.033H275.933L288.078 504.887C288.078 504.887 289.098 515.599 296.191 515.186C305.106 514.676 304.013 503.381 304.013 503.381L284.24 368.033Z" fill="#DCDDDD" stroke="black" stroke-width="0.5314" stroke-miterlimit="10"/>
<path d="M286.961 331.646L281.18 333.978L313.292 460.654C313.292 460.654 316.498 470.394 323.324 468.427C331.899 465.949 327.21 455.65 327.21 455.65L286.961 331.646Z" fill="#DCDDDD" stroke="black" stroke-width="0.5314" stroke-miterlimit="10"/>
<path d="M285.163 349.524L281.447 349.888L301.292 478.216C301.292 478.216 302.264 488.442 309.357 488.029C318.272 487.519 317.227 476.71 317.227 476.71L285.163 349.524Z" fill="#DCDDDD" stroke="black" stroke-width="0.5314" stroke-miterlimit="10"/>
<path d="M374.456 195.01L367.339 187.067L462.655 98.0906C462.655 98.0906 470.307 91.2407 475.797 96.9975C482.72 104.236 474.631 111.451 474.631 111.451L374.456 195.01Z" fill="#DCDDDD" stroke="black" stroke-width="0.5314" stroke-miterlimit="10"/>
<path d="M350.991 219.738L349.096 216.313L453.619 129.11C453.619 129.11 462.145 122.551 466.688 127.992C472.396 134.842 463.384 141.79 463.384 141.79L350.991 219.738Z" fill="#DCDDDD" stroke="black" stroke-width="0.5314" stroke-miterlimit="10"/>
<path d="M324.927 242.717L324.029 240.75L438.535 177.764C438.535 177.764 447.862 173.465 451.069 179.804C455.101 187.772 445.263 192.314 445.263 192.314L324.927 242.717Z" fill="#DCDDDD" stroke="black" stroke-width="0.5314" stroke-miterlimit="10"/>
<path d="M351.234 241.284L348.343 233.438L427.944 199.674C427.944 199.674 434.332 197.318 436.276 202.127C438.729 208.176 432.001 210.653 432.001 210.653L351.234 241.284Z" fill="#DCDDDD" stroke="black" stroke-width="0.5314" stroke-miterlimit="10"/>
<path d="M353.444 248.134L351.234 241.309L431.782 210.921C431.782 210.921 438.17 208.565 440.259 213.714C442.883 220.2 436.13 222.678 436.13 222.678L353.444 248.134Z" fill="#DCDDDD" stroke="black" stroke-width="0.5314" stroke-miterlimit="10"/>
<path d="M338.093 233.05L335.809 230.086L443.15 156.995C443.15 156.995 451.287 150.728 455.805 156.194C461.514 163.068 452.915 169.675 452.915 169.675L338.093 233.05Z" fill="#DCDDDD" stroke="black" stroke-width="0.5314" stroke-miterlimit="10"/>
<path d="M373.63 348.989L366.513 356.932L461.83 445.909C461.83 445.909 469.481 452.759 474.971 447.002C481.894 439.763 473.805 432.549 473.805 432.549L373.63 348.989Z" fill="#DCDDDD" stroke="black" stroke-width="0.5314" stroke-miterlimit="10"/>
<path d="M350.19 324.237L348.295 327.662L452.818 414.865C452.818 414.865 461.344 421.424 465.886 415.982C471.594 409.133 462.583 402.185 462.583 402.185L350.19 324.237Z" fill="#DCDDDD" stroke="black" stroke-width="0.5314" stroke-miterlimit="10"/>
<path d="M321.672 300.238L323.203 303.225L437.709 366.211C437.709 366.211 447.036 370.51 450.243 364.171C454.275 356.203 444.437 351.661 444.437 351.661L321.672 300.238Z" fill="#DCDDDD" stroke="black" stroke-width="0.5314" stroke-miterlimit="10"/>
<path d="M337.291 310.95L335.008 313.913L442.348 387.004C442.348 387.004 450.486 393.271 455.004 387.806C460.712 380.931 452.113 374.324 452.113 374.324L337.291 310.95Z" fill="#DCDDDD" stroke="black" stroke-width="0.5314" stroke-miterlimit="10"/>
<path d="M401.176 279.299L401.321 271.574L531.714 271.623C531.714 271.623 541.964 271.842 542.062 279.785C542.183 289.792 531.349 289.55 531.349 289.55L401.176 279.299Z" fill="#DCDDDD" stroke="black" stroke-width="0.5314" stroke-miterlimit="10"/>
<path d="M367.096 284.327V276.02L503.95 288.165C503.95 288.165 514.662 289.186 514.249 296.278C513.739 305.193 502.443 304.1 502.443 304.1L367.096 284.327Z" fill="#DCDDDD" stroke="black" stroke-width="0.5314" stroke-miterlimit="10"/>
<path d="M332.36 283.331L333.04 281.266L459.716 313.379C459.716 313.379 469.457 316.585 467.489 323.411C465.012 331.985 454.712 328.585 454.712 328.585L332.36 283.331Z" fill="#DCDDDD" stroke="black" stroke-width="0.5314" stroke-miterlimit="10"/>
<path d="M352.57 300.237L355.801 292.513L437.029 322.172C437.029 322.172 443.296 324.795 441.45 329.654C439.118 335.75 432.511 332.957 432.511 332.957L352.57 300.237Z" fill="#DCDDDD" stroke="black" stroke-width="0.5314" stroke-miterlimit="10"/>
<path d="M347.566 310.95L352.57 300.238L432.171 333.03C432.171 333.03 438.438 335.653 436.446 340.852C433.944 347.386 427.312 344.592 427.312 344.592L347.566 310.95Z" fill="#DCDDDD" stroke="black" stroke-width="0.5314" stroke-miterlimit="10"/>
<path d="M348.586 285.25L348.951 281.534L477.278 301.379C477.278 301.379 487.505 302.351 487.092 309.444C486.582 318.359 475.772 317.314 475.772 317.314L348.586 285.25Z" fill="#DCDDDD" stroke="black" stroke-width="0.5314" stroke-miterlimit="10"/>
<path d="M401.613 264.457L401.759 272.182L532.151 272.133C532.151 272.133 542.402 271.915 542.499 263.972C542.62 253.964 531.787 254.207 531.787 254.207L401.613 264.457Z" fill="#DCDDDD" stroke="black" stroke-width="0.5314" stroke-miterlimit="10"/>
<path d="M367.533 259.429V267.737L504.387 255.591C504.387 255.591 515.099 254.571 514.686 247.478C514.176 238.564 502.881 239.657 502.881 239.657L367.533 259.429Z" fill="#DCDDDD" stroke="black" stroke-width="0.5314" stroke-miterlimit="10"/>
<path d="M331.146 256.709L333.478 262.49L460.153 230.378C460.153 230.378 469.894 227.171 467.926 220.345C465.449 211.771 455.15 216.459 455.15 216.459L331.146 256.709Z" fill="#DCDDDD" stroke="black" stroke-width="0.5314" stroke-miterlimit="10"/>
<path d="M349.024 258.531L349.388 262.247L477.716 242.402C477.716 242.402 487.942 241.43 487.529 234.337C487.019 225.422 476.21 226.467 476.21 226.467L349.024 258.531Z" fill="#DCDDDD" stroke="black" stroke-width="0.5314" stroke-miterlimit="10"/>
<path d="M168.544 348.989L175.661 356.932L80.3445 445.909C80.3445 445.909 72.6929 452.759 67.2032 447.002C60.2804 439.763 68.3692 432.549 68.3692 432.549L168.544 348.989Z" fill="#DCDDDD" stroke="black" stroke-width="0.5314" stroke-miterlimit="10"/>
<path d="M192.009 324.237L193.903 327.662L89.3806 414.865C89.3806 414.865 80.8545 421.424 76.3122 415.982C70.6039 409.133 79.6157 402.185 79.6157 402.185L192.009 324.237Z" fill="#DCDDDD" stroke="black" stroke-width="0.5314" stroke-miterlimit="10"/>
<path d="M218.048 301.258L218.947 303.225L104.441 366.211C104.441 366.211 95.1131 370.51 91.9068 364.17C87.8745 356.203 97.7122 351.661 97.7122 351.661L218.048 301.258Z" fill="#DCDDDD" stroke="black" stroke-width="0.5314" stroke-miterlimit="10"/>
<path d="M191.766 302.691L194.656 310.537L115.056 344.301C115.056 344.301 108.667 346.657 106.724 341.847C104.271 335.799 110.999 333.321 110.999 333.321L191.766 302.691Z" fill="#DCDDDD" stroke="black" stroke-width="0.5314" stroke-miterlimit="10"/>
<path d="M189.531 295.865L191.742 302.691L111.194 333.079C111.194 333.079 104.805 335.435 102.741 330.285C100.117 323.8 106.87 321.322 106.87 321.322L189.531 295.865Z" fill="#DCDDDD" stroke="black" stroke-width="0.5314" stroke-miterlimit="10"/>
<path d="M204.883 310.95L207.166 313.913L99.8256 387.004C99.8256 387.004 91.6882 393.271 87.1702 387.806C81.4619 380.931 90.0608 374.324 90.0608 374.324L204.883 310.95Z" fill="#DCDDDD" stroke="black" stroke-width="0.5314" stroke-miterlimit="10"/>
<path d="M169.346 195.01L176.463 187.067L81.1704 98.0906C81.1704 98.0906 73.5188 91.2407 68.0291 96.9975C61.1063 104.236 69.195 111.451 69.195 111.451L169.346 195.01Z" fill="#DCDDDD" stroke="black" stroke-width="0.5314" stroke-miterlimit="10"/>
<path d="M192.81 219.738L194.705 216.313L90.1822 129.11C90.1822 129.11 81.6562 122.551 77.1138 127.992C71.4055 134.842 80.4173 141.79 80.4173 141.79L192.81 219.738Z" fill="#DCDDDD" stroke="black" stroke-width="0.5314" stroke-miterlimit="10"/>
<path d="M221.303 243.737L219.773 240.75L105.267 177.764C105.267 177.764 95.9391 173.465 92.7327 179.804C88.7005 187.772 98.5382 192.314 98.5382 192.314L221.303 243.737Z" fill="#DCDDDD" stroke="black" stroke-width="0.5314" stroke-miterlimit="10"/>
<path d="M205.709 233.05L207.992 230.086L100.651 156.995C100.651 156.995 92.5141 150.728 87.996 156.194C82.2877 163.068 90.8866 169.675 90.8866 169.675L205.709 233.05Z" fill="#DCDDDD" stroke="black" stroke-width="0.5314" stroke-miterlimit="10"/>
<path d="M141.8 264.676L141.654 272.401L11.2618 272.376C11.2618 272.376 1.01117 272.158 0.914008 264.215C0.792555 254.207 11.6262 254.45 11.6262 254.45L141.8 264.676Z" fill="#DCDDDD" stroke="black" stroke-width="0.5314" stroke-miterlimit="10"/>
<path d="M175.904 259.672V267.98L39.0503 255.834C39.0503 255.834 28.3381 254.814 28.7511 247.721C29.2612 238.807 40.5563 239.9 40.5563 239.9L175.904 259.672Z" fill="#DCDDDD" stroke="black" stroke-width="0.5314" stroke-miterlimit="10"/>
<path d="M210.615 260.644L209.935 262.708L83.2593 230.596C83.2593 230.596 73.5188 227.39 75.4863 220.564C77.964 211.989 88.2632 215.39 88.2632 215.39L210.615 260.644Z" fill="#DCDDDD" stroke="black" stroke-width="0.5314" stroke-miterlimit="10"/>
<path d="M190.43 243.737L187.199 251.462L105.971 221.803C105.971 221.803 99.7042 219.18 101.55 214.321C103.882 208.224 110.489 211.018 110.489 211.018L190.43 243.737Z" fill="#DCDDDD" stroke="black" stroke-width="0.5314" stroke-miterlimit="10"/>
<path d="M195.434 233.05L190.43 243.762L110.829 210.969C110.829 210.969 104.562 208.346 106.554 203.148C109.056 196.614 115.687 199.407 115.687 199.407L195.434 233.05Z" fill="#DCDDDD" stroke="black" stroke-width="0.5314" stroke-miterlimit="10"/>
<path d="M194.389 258.749L194.025 262.466L65.6972 242.62C65.6972 242.62 55.4708 241.649 55.8838 234.556C56.3939 225.641 67.2032 226.686 67.2032 226.686L194.389 258.749Z" fill="#DCDDDD" stroke="black" stroke-width="0.5314" stroke-miterlimit="10"/>
<path d="M141.387 279.518L141.241 271.793L10.8488 271.842C10.8488 271.842 0.598176 272.06 0.501014 280.003C0.37956 290.011 11.2132 289.768 11.2132 289.768L141.387 279.518Z" fill="#DCDDDD" stroke="black" stroke-width="0.5314" stroke-miterlimit="10"/>
<path d="M175.467 284.546V276.238L38.6131 288.383C38.6131 288.383 27.9009 289.404 28.3139 296.497C28.824 305.411 40.1192 304.318 40.1192 304.318L175.467 284.546Z" fill="#DCDDDD" stroke="black" stroke-width="0.5314" stroke-miterlimit="10"/>
<path d="M211.83 287.266L209.498 281.485L82.8222 313.597C82.8222 313.597 73.0816 316.804 75.0491 323.629C77.5268 332.204 87.826 327.516 87.826 327.516L211.83 287.266Z" fill="#DCDDDD" stroke="black" stroke-width="0.5314" stroke-miterlimit="10"/>
<path d="M193.952 285.469L193.588 281.752L65.2599 301.598C65.2599 301.598 55.0336 302.569 55.4465 309.662C55.9566 318.577 66.766 317.532 66.766 317.532L193.952 285.469Z" fill="#DCDDDD" stroke="black" stroke-width="0.5314" stroke-miterlimit="10"/>
<path d="M187.636 309.007L173.864 226.759L170.463 227.317L170.487 227.39H167.985L168.01 227.317L164.609 226.759L150.885 308.788H150.812C150.812 317.12 159.022 323.873 169.151 323.873C179.183 323.873 187.321 317.241 187.491 309.031L187.636 309.007ZM154.358 308.788L167.305 231.52V308.788H154.358ZM170.73 308.788V228.921L184.09 308.788H170.73Z" fill="#DCDDDD"/>
<path d="M392.115 309.007L378.342 226.759L374.942 227.317L374.966 227.39H372.464L372.488 227.317L369.088 226.759L355.363 308.788H355.291C355.291 317.12 363.501 323.873 373.63 323.873C383.662 323.873 391.799 317.241 391.97 309.031L392.115 309.007ZM358.837 308.788L371.784 231.52V308.788H358.837ZM375.209 308.788V228.921L388.569 308.788H375.209Z" fill="#DCDDDD"/>
<path d="M271.488 424.728C355.844 424.728 424.228 356.344 424.228 271.988C424.228 187.632 355.844 119.248 271.488 119.248C187.132 119.248 118.748 187.632 118.748 271.988C118.748 356.344 187.132 424.728 271.488 424.728Z" fill="#DCDDDD" stroke="black" stroke-width="0.5251" stroke-miterlimit="10"/>
<path d="M271.488 420.987C353.778 420.987 420.487 354.278 420.487 271.988C420.487 189.698 353.778 122.989 271.488 122.989C189.198 122.989 122.489 189.698 122.489 271.988C122.489 354.278 189.198 420.987 271.488 420.987Z" fill="#326093"/>
<path d="M242.849 220.661C242.485 220.419 241.975 220.248 241.392 220.103C241.829 219.35 242.072 218.572 242.145 217.722C242.193 217.066 242.12 216.313 241.926 215.463L241.173 215.658C240.93 215.73 240.687 215.803 240.444 215.9C240.42 215.9 240.323 215.658 240.201 215.22C240.08 214.783 240.031 214.54 240.056 214.516C240.25 214.492 240.517 214.419 240.809 214.346L241.562 214.127L240.857 211.552L240.25 211.722C240.104 211.771 239.91 211.82 239.643 211.917C239.618 211.917 239.521 211.698 239.4 211.237C239.278 210.799 239.23 210.556 239.254 210.508C239.74 210.411 240.323 210.265 240.979 210.095L242.703 209.609L244.428 209.123C244.938 208.978 245.521 208.808 246.153 208.589C246.201 208.613 246.274 208.856 246.395 209.293C246.517 209.731 246.566 209.974 246.541 209.998C246.371 210.022 246.177 210.071 246.007 210.119L245.472 210.265L246.177 212.84L246.881 212.645C247.051 212.597 247.27 212.524 247.586 212.427C247.61 212.427 247.683 212.645 247.829 213.107C247.95 213.544 247.999 213.787 247.974 213.811C247.731 213.86 247.513 213.909 247.27 213.981L246.566 214.176L247.246 216.629C247.537 217.649 247.804 218.451 248.047 219.034C247.999 219.083 247.683 219.204 247.124 219.35C246.566 219.495 246.25 219.568 246.153 219.544C246.08 218.912 245.885 218.087 245.594 217.066L244.914 214.613L243.481 215.002C243.748 216.07 243.845 216.994 243.772 217.819C243.699 218.84 243.408 219.787 242.849 220.661ZM243.116 213.69L244.525 213.301L243.821 210.727L242.412 211.115L242.776 212.403L243.116 213.69ZM249.82 215.39C249.286 215.536 248.995 215.609 248.922 215.585C248.873 215.172 248.752 214.637 248.557 213.957L248.096 212.33L247.634 210.702C247.44 210.046 247.27 209.488 247.076 209.075C247.464 208.953 247.877 208.832 248.29 208.759C248.825 208.638 249.092 208.638 249.116 208.686C248.995 209.123 248.97 209.536 249.092 209.901L249.82 212.524C250.112 213.544 250.403 214.419 250.695 215.099C250.671 215.123 250.379 215.245 249.82 215.39ZM250.986 218.33C250.744 217.844 250.452 217.406 250.088 217.066C250.622 216.945 251.205 216.775 251.885 216.581C252.007 216.556 252.104 216.508 252.152 216.459C252.201 216.411 252.201 216.338 252.177 216.241L250.671 210.775C250.258 209.342 249.893 208.176 249.529 207.302C249.991 207.156 250.428 207.034 250.889 206.937C251.448 206.816 251.739 206.791 251.739 206.864C251.618 207.302 251.594 207.714 251.715 208.079L252.614 211.334L253.853 215.828C253.95 216.216 253.998 216.532 253.95 216.751C253.901 216.994 253.756 217.188 253.537 217.382C253.1 217.649 252.25 217.965 250.986 218.33Z" fill="#DCDDDD"/>
<path d="M262.719 216.411C262.622 216.071 262.403 215.706 262.063 215.318C262.524 215.293 263.132 215.269 263.86 215.22C264.006 215.196 264.079 215.172 264.128 215.123C264.176 215.075 264.201 215.002 264.176 214.905L264.152 214.54L261.942 214.71C261.188 214.759 260.46 214.832 259.731 214.929C259.707 214.88 259.658 214.686 259.634 214.346C259.61 213.982 259.61 213.787 259.634 213.763C260.193 213.763 260.921 213.739 261.844 213.666L264.055 213.496L264.006 212.937L261.116 213.131C260.193 213.204 259.245 213.301 258.249 213.423C258.225 213.374 258.176 213.156 258.152 212.791C258.128 212.427 258.128 212.208 258.152 212.184C258.638 212.184 259.099 212.16 259.585 212.135L261.018 212.038L263.909 211.844L263.86 211.334L261.699 211.48C260.97 211.528 260.265 211.601 259.561 211.698C259.537 211.65 259.488 211.48 259.464 211.14C259.44 210.799 259.44 210.629 259.464 210.581C259.998 210.581 260.727 210.557 261.626 210.508L263.788 210.362L263.739 209.828L259.804 210.119L259.707 208.929C259.682 208.516 259.634 208.128 259.561 207.739C259.561 207.69 259.585 207.666 259.61 207.666C260.12 207.666 260.751 207.666 261.577 207.593L263.545 207.447L263.52 206.962L260.8 207.156C259.95 207.229 259.051 207.302 258.104 207.447C258.079 207.399 258.031 207.18 258.006 206.792C257.982 206.403 257.982 206.184 258.006 206.136C258.735 206.136 259.634 206.111 260.727 206.039L263.448 205.844L263.423 205.456C263.423 205.358 263.399 205.213 263.375 205.018C263.788 204.97 264.201 204.945 264.613 204.945C265.148 204.945 265.415 204.97 265.415 205.043C265.269 205.14 265.196 205.261 265.196 205.383L265.221 205.723L267.99 205.528C268.864 205.456 269.787 205.358 270.759 205.237C270.783 205.286 270.832 205.504 270.856 205.893C270.88 206.281 270.88 206.5 270.856 206.549C270.127 206.549 269.18 206.573 268.063 206.646L265.294 206.84L265.318 207.326L269.447 207.034L269.544 208.225C269.569 208.638 269.617 209.026 269.69 209.415C269.69 209.464 269.666 209.488 269.642 209.488C269.132 209.488 268.451 209.512 267.577 209.561L265.512 209.706L265.561 210.241L269.933 209.925L270.03 211.407L270.783 211.358C271.051 211.334 271.293 211.31 271.536 211.261C271.561 211.285 271.585 211.455 271.633 211.844C271.682 212.233 271.658 212.403 271.633 212.427C271.463 212.427 271.196 212.427 270.88 212.451L270.127 212.5L270.2 213.544C270.225 213.909 270.273 214.249 270.346 214.589C270.322 214.613 270.006 214.662 269.423 214.71C268.84 214.759 268.524 214.759 268.524 214.735C268.524 214.71 268.524 214.686 268.524 214.637C268.524 214.565 268.524 214.516 268.524 214.492L268.5 214.249L265.877 214.443L265.901 214.807C265.925 215.148 265.901 215.415 265.779 215.609C265.658 215.803 265.488 215.949 265.196 216.071C264.881 216.192 264.031 216.313 262.719 216.411ZM261.504 209.075L263.788 208.905L263.739 208.322L262.597 208.395L261.456 208.468L261.504 209.075ZM265.561 208.783L266.727 208.686L267.917 208.589L267.868 208.006L265.512 208.176L265.561 208.783ZM265.755 211.698L268.379 211.504L268.33 210.994L267.018 211.091L265.707 211.188L265.755 211.698ZM265.877 213.35L267.188 213.253L268.5 213.156L268.451 212.597L265.828 212.791L265.877 213.35Z" fill="#DCDDDD"/>
<path d="M276.443 211.528C276.419 211.455 276.419 211.31 276.467 211.018C276.492 210.751 276.54 210.557 276.564 210.508C277.658 210.727 279.139 210.97 280.985 211.188L285.358 211.723C286.815 211.893 288.273 212.038 289.73 212.111C289.754 212.184 289.754 212.354 289.706 212.646C289.681 212.937 289.633 213.083 289.609 213.156C288.807 212.986 287.714 212.816 286.329 212.646L283.026 212.233L279.722 211.82C278.653 211.674 277.536 211.577 276.443 211.528ZM289.244 211.285C288.175 210.945 287.301 210.484 286.597 209.925C285.892 210.192 285.042 210.362 283.973 210.484C283.779 210.095 283.536 209.755 283.269 209.464C284.265 209.415 285.066 209.294 285.673 209.099C285.431 208.856 285.188 208.516 284.945 208.079C284.653 208.273 284.41 208.419 284.192 208.516C283.925 208.249 283.657 208.03 283.39 207.836C283.172 209.075 282.929 209.779 282.661 209.974C282.443 210.119 282.176 210.192 281.884 210.168C281.593 210.168 281.228 210.144 280.767 210.071C280.767 210.047 280.767 210.022 280.767 209.998C280.767 209.877 280.767 209.779 280.767 209.707L277.658 209.318L277.803 208.03C277.682 208.103 277.56 208.152 277.415 208.225C277.22 207.909 276.953 207.642 276.637 207.423C277.39 207.132 277.973 206.743 278.338 206.282L278.653 206.379L278.678 206.112L277.949 206.014C277.779 205.99 277.536 205.966 277.22 205.941C277.196 205.917 277.196 205.771 277.22 205.504C277.245 205.237 277.293 205.091 277.317 205.091C277.56 205.14 277.803 205.164 278.046 205.213L278.775 205.31L278.799 205.116C278.799 205.091 278.799 205.043 278.799 204.994C278.799 204.946 278.799 204.897 278.799 204.873C279.115 204.897 279.455 204.946 279.795 204.994C280.208 205.091 280.427 205.164 280.402 205.237C280.281 205.261 280.208 205.31 280.208 205.359L280.184 205.504L281.301 205.65L281.325 205.456C281.325 205.431 281.325 205.383 281.325 205.334C281.325 205.286 281.325 205.237 281.325 205.213C281.641 205.237 281.981 205.286 282.321 205.334C282.734 205.407 282.953 205.504 282.929 205.577C282.807 205.601 282.734 205.65 282.734 205.699L282.71 205.844L283.414 205.941C283.56 205.966 283.803 205.99 284.119 206.014C284.143 206.014 284.143 206.16 284.119 206.452C284.095 206.743 284.046 206.865 284.022 206.889C283.779 206.84 283.56 206.816 283.317 206.792L282.613 206.694L282.589 206.865C282.589 206.889 282.589 206.913 282.589 206.962C282.589 207.01 282.589 207.035 282.589 207.035C282.564 207.059 282.321 207.059 281.836 206.986C281.35 206.937 281.107 206.889 281.107 206.84C281.107 206.84 281.107 206.816 281.107 206.767C281.131 206.719 281.131 206.694 281.131 206.67L281.155 206.5L280.038 206.354L279.989 206.719L279.285 206.622L279.455 206.67C279.455 206.694 279.431 206.719 279.382 206.767C279.358 206.816 279.334 206.84 279.309 206.865L281.374 207.107L283.414 207.35C283.414 207.448 283.39 207.52 283.366 207.618C284.289 207.132 284.969 206.5 285.406 205.699C285.746 205.82 286.062 205.941 286.378 206.039C286.669 206.16 286.815 206.233 286.815 206.282C286.815 206.306 286.767 206.306 286.718 206.306C286.645 206.306 286.572 206.33 286.548 206.403C286.524 206.452 286.475 206.524 286.402 206.622C286.378 206.646 286.354 206.67 286.354 206.694L288.273 206.937C288.928 207.01 289.56 207.059 290.192 207.107C290.216 207.132 290.216 207.326 290.167 207.642C290.119 207.958 290.094 208.128 290.07 208.152C289.9 208.103 289.73 208.079 289.536 208.055L289.001 207.982C288.686 208.541 288.248 209.026 287.665 209.415C288.37 209.852 289.196 210.217 290.143 210.46C289.851 210.63 289.536 210.921 289.244 211.285ZM278.775 216.241C278.216 216.168 277.925 216.119 277.9 216.071C277.973 215.731 278.046 215.366 278.095 214.978L278.216 213.885L282.759 214.443L287.325 215.002L287.204 216.095C287.155 216.459 287.131 216.824 287.131 217.188C287.107 217.212 286.791 217.212 286.208 217.139C285.625 217.067 285.358 217.018 285.333 216.969V216.945C285.333 216.921 285.358 216.897 285.358 216.897L285.382 216.799L279.601 216.095L279.577 216.192C279.577 216.216 279.577 216.216 279.577 216.265V216.314C279.577 216.314 279.309 216.314 278.775 216.241ZM278.411 213.69C278.386 213.642 278.386 213.52 278.411 213.277C278.435 213.034 278.483 212.889 278.508 212.816C279.601 213.034 281.034 213.277 282.88 213.496L285.091 213.763C285.844 213.86 286.572 213.909 287.301 213.957C287.325 213.982 287.325 214.127 287.301 214.346C287.277 214.565 287.252 214.71 287.204 214.735C286.669 214.613 285.941 214.516 285.018 214.395L282.807 214.127L280.597 213.86C279.892 213.787 279.164 213.739 278.411 213.69ZM281.083 209.245L281.228 209.269C281.35 209.294 281.471 209.269 281.544 209.196C281.666 209.099 281.787 208.638 281.957 207.836L280.354 207.642L278.775 207.447C278.629 207.569 278.508 207.666 278.411 207.715L281.204 208.055L281.083 209.245ZM278.532 212.791C278.508 212.719 278.508 212.573 278.532 212.33C278.556 212.111 278.581 211.966 278.629 211.941C279.164 212.063 279.892 212.16 280.815 212.281L283.026 212.549L285.236 212.816C285.989 212.913 286.718 212.961 287.447 213.01C287.471 213.034 287.471 213.18 287.447 213.399C287.422 213.617 287.398 213.763 287.35 213.787C286.815 213.666 286.086 213.569 285.163 213.447L282.953 213.18C281.471 213.01 280.014 212.864 278.532 212.791ZM278.824 208.832L279.406 208.905L279.989 208.978L280.038 208.565L278.896 208.419L278.824 208.832ZM279.212 210.727C279.188 210.678 279.188 210.557 279.212 210.314C279.236 210.095 279.261 209.925 279.309 209.877C280.33 210.095 281.641 210.29 283.244 210.484L285.236 210.727C285.916 210.8 286.572 210.872 287.228 210.897C287.252 210.921 287.252 211.067 287.228 211.285C287.204 211.504 287.18 211.65 287.131 211.674C286.645 211.577 285.989 211.455 285.163 211.358L283.172 211.115L281.204 210.872C280.524 210.824 279.868 210.775 279.212 210.727ZM279.698 215.366L282.589 215.706L285.479 216.071L285.552 215.512L279.771 214.808L279.698 215.366ZM286.791 208.589C287.18 208.322 287.447 208.03 287.641 207.715L285.965 207.52C286.062 207.739 286.184 207.909 286.329 208.079C286.427 208.201 286.572 208.371 286.791 208.589Z" fill="#DCDDDD"/>
<path d="M294.272 218.451C294.005 217.941 293.738 217.503 293.471 217.139C294.175 217.163 294.855 217.115 295.487 217.042C296.191 216.945 296.75 216.775 297.163 216.58C297.503 216.799 297.795 217.066 298.062 217.333C298.329 217.625 298.402 217.771 298.329 217.795C298.256 217.819 298.183 217.819 298.086 217.795C297.916 217.746 297.746 217.771 297.576 217.844C297.284 217.941 296.944 218.038 296.507 218.135C295.73 218.305 295.001 218.427 294.272 218.451ZM297.309 219.641C297.357 219.374 297.333 218.937 297.212 218.378C297.867 218.621 298.353 218.767 298.669 218.839C298.839 218.888 298.936 218.864 298.985 218.767L299.446 217.261L295.463 216.022L295.706 215.196C295.293 215.22 294.953 215.22 294.637 215.196C294.515 214.734 294.37 214.321 294.151 214.006C294.977 214.054 295.803 214.03 296.629 213.884C296.434 213.52 296.167 213.155 295.851 212.742C295.803 212.742 295.706 212.767 295.584 212.767C295.536 212.767 295.487 212.767 295.463 212.767C295.317 212.33 295.123 211.989 294.855 211.698C296.58 211.625 297.867 211.236 298.766 210.508C299.082 210.654 299.373 210.824 299.689 211.018C299.981 211.188 300.102 211.285 300.102 211.285C300.102 211.285 300.054 211.285 300.005 211.285C299.932 211.261 299.884 211.285 299.835 211.309C299.762 211.358 299.689 211.431 299.568 211.479L300.855 211.892L301.122 211.917L301.657 212.354C301.608 212.087 301.584 211.868 301.56 211.674L302.896 211.795C302.944 212.305 303.09 212.84 303.309 213.374L303.527 212.694L306.175 213.52L306.321 213.544L306.563 212.791L302.094 211.407L297.624 210.022L297.479 210.483C297.43 210.653 297.382 210.799 297.357 210.945C297.333 210.969 297.066 210.921 296.58 210.751C296.07 210.605 295.827 210.508 295.803 210.459C295.948 210.143 296.07 209.828 296.167 209.463L296.483 208.443L301.632 210.046L301.754 209.658C301.778 209.56 301.827 209.415 301.851 209.245C302.24 209.342 302.628 209.463 303.017 209.633C303.503 209.828 303.721 209.949 303.721 210.022C303.551 210.071 303.43 210.143 303.406 210.265L303.309 210.581L308.458 212.184L307.827 214.2L306.782 213.884L307.268 214.37C306.612 214.953 305.859 215.463 305.009 215.876C305.689 216.532 306.491 217.091 307.414 217.576C306.976 217.746 306.563 218.014 306.151 218.354C304.985 217.674 304.037 216.92 303.357 216.07L303.211 216.556L298.548 215.099L298.645 214.734C297.989 214.953 297.309 215.099 296.556 215.196L301.098 216.605C302.507 217.042 303.964 217.431 305.398 217.795C305.398 217.868 305.349 218.111 305.227 218.499C305.106 218.888 305.033 219.107 304.985 219.131C304.523 218.937 303.867 218.718 303.041 218.451L301.074 217.844L300.588 219.398C300.491 219.714 300.369 219.933 300.248 220.054C300.102 220.175 299.884 220.248 299.592 220.273C299.325 220.273 299.009 220.224 298.62 220.127C298.329 219.933 297.916 219.811 297.309 219.641ZM297.77 213.641C297.892 213.617 298.062 213.544 298.28 213.471C298.086 213.155 297.795 212.84 297.43 212.451H297.406C297.212 212.5 297.066 212.548 296.944 212.572C297.09 212.742 297.26 212.937 297.406 213.131C297.576 213.325 297.673 213.496 297.77 213.641ZM299.203 213.034C299.519 212.864 299.786 212.694 299.981 212.524L298.499 212.062L298.378 212.111C298.523 212.232 298.669 212.378 298.815 212.572C298.985 212.742 299.106 212.888 299.203 213.034ZM299.713 214.224L301.22 214.686L302.726 215.147C302.264 214.394 301.924 213.593 301.754 212.742C301.195 213.325 300.515 213.811 299.713 214.224ZM304.207 221.536C303.94 221.196 303.503 220.734 302.944 220.175C302.41 219.665 301.9 219.18 301.365 218.742L302.726 218.256C303.211 218.645 303.746 219.107 304.329 219.641C304.912 220.175 305.373 220.613 305.665 220.977L304.207 221.536ZM304.11 214.807C304.402 214.661 304.693 214.491 305.009 214.249L303.479 213.787C303.527 213.908 303.624 214.078 303.77 214.297C303.916 214.516 304.037 214.71 304.11 214.807Z" fill="#DCDDDD"/>
<path d="M240.663 375.37V383.167H238.671C238.452 382.341 238.088 381.685 237.651 381.175C235.635 382.9 232.938 383.774 229.635 383.774C225.846 383.774 222.833 382.73 220.574 380.616C218.315 378.503 217.174 376.025 217.174 373.135C217.174 370.293 218.291 367.767 220.526 365.532C222.761 363.321 225.87 362.204 229.829 362.204C232.793 362.204 235.295 363.03 237.359 364.706C237.626 364.196 237.894 363.564 238.112 362.86H240.104L240.347 370.536H238.355C237.772 368.447 236.801 366.868 235.465 365.799C234.129 364.73 232.55 364.196 230.704 364.196C228.59 364.196 227.011 364.9 225.943 366.309C224.874 367.718 224.339 369.928 224.339 372.916C224.339 375.029 224.534 376.681 224.922 377.92C225.311 379.159 226.064 380.106 227.206 380.762C228.347 381.418 229.586 381.758 230.922 381.758C232.695 381.758 234.274 381.224 235.683 380.179C237.068 379.135 238.088 377.531 238.695 375.37H240.663Z" fill="#DCDDDD"/>
<path d="M245.229 381.127C245.229 380.374 245.545 379.718 246.177 379.183C246.808 378.625 247.586 378.357 248.484 378.357C249.383 378.357 250.16 378.625 250.792 379.183C251.424 379.718 251.739 380.374 251.739 381.127C251.739 381.904 251.424 382.535 250.768 383.094C250.136 383.628 249.359 383.896 248.484 383.896C247.61 383.896 246.833 383.628 246.201 383.094C245.57 382.56 245.229 381.904 245.229 381.127Z" fill="#DCDDDD"/>
<path d="M264.832 364.268V362.568H277.73V364.268H277.342C276.127 364.268 275.35 364.463 274.985 364.851C274.621 365.24 274.427 365.896 274.427 366.819V379.11C274.427 380.057 274.621 380.713 274.985 381.102C275.374 381.466 276.151 381.66 277.342 381.66H277.73V383.361H264.832V381.66C266.119 381.66 266.994 381.49 267.407 381.15C267.844 380.81 268.038 380.13 268.038 379.11V366.819C268.038 365.823 267.844 365.167 267.431 364.803C267.067 364.463 266.192 364.268 264.832 364.268Z" fill="#DCDDDD"/>
<path d="M281.69 381.127C281.69 380.374 282.005 379.718 282.637 379.183C283.269 378.625 284.046 378.357 284.945 378.357C285.843 378.357 286.621 378.625 287.252 379.183C287.884 379.718 288.2 380.374 288.2 381.127C288.2 381.904 287.884 382.535 287.228 383.094C286.596 383.628 285.819 383.896 284.945 383.896C284.07 383.896 283.293 383.628 282.661 383.094C282.03 382.56 281.69 381.904 281.69 381.127Z" fill="#DCDDDD"/>
<path d="M301.438 383.361V381.661C302.725 381.661 303.576 381.491 303.989 381.15C304.402 380.81 304.62 380.13 304.62 379.134V366.843C304.62 365.872 304.426 365.191 304.037 364.827C303.649 364.463 302.774 364.293 301.438 364.293V362.617L304.377 362.52C307.316 362.422 309.648 362.374 311.324 362.374C314.142 362.374 316.401 362.52 318.174 362.787C319.948 363.054 321.599 363.661 323.154 364.609C324.709 365.556 325.923 366.746 326.773 368.228C327.623 369.71 328.036 371.361 328.036 373.135C328.036 374.956 327.599 376.608 326.7 378.041C325.802 379.474 324.611 380.64 323.081 381.491C321.575 382.341 319.996 382.875 318.393 383.094C316.765 383.288 314.045 383.409 310.231 383.409H301.438V383.361ZM311.009 364.196V378.503C311.009 379.426 311.057 380.033 311.154 380.349C311.251 380.665 311.519 380.932 311.956 381.15C312.393 381.369 313.073 381.491 313.972 381.491C316.231 381.491 317.907 380.786 319.049 379.377C320.19 377.968 320.725 375.855 320.725 373.062C320.725 370.803 320.312 368.981 319.486 367.645C318.66 366.309 317.591 365.386 316.255 364.924C314.944 364.438 313.195 364.196 311.009 364.196Z" fill="#DCDDDD"/>
<path d="M331.073 381.127C331.073 380.374 331.388 379.718 332.02 379.183C332.652 378.625 333.429 378.357 334.328 378.357C335.226 378.357 336.004 378.625 336.635 379.183C337.267 379.718 337.583 380.374 337.583 381.127C337.583 381.904 337.267 382.535 336.611 383.094C335.979 383.628 335.202 383.896 334.328 383.896C333.453 383.896 332.676 383.628 332.044 383.094C331.413 382.56 331.073 381.904 331.073 381.127Z" fill="#DCDDDD"/>
<path fill-rule="evenodd" clip-rule="evenodd" d="M325.704 332.18C318.83 331.257 312.563 327.274 304.572 328.585C305.252 327.93 305.495 327.589 305.81 327.371C310.256 324.262 314.846 321.322 319.122 317.995C321.113 316.44 323.081 315.93 325.316 316.586C330.757 318.165 335.882 317.509 340.838 314.91C343.752 313.379 347.105 312.481 349.315 309.299C341.761 307.38 334.522 305.874 327.429 310.586C327.818 309.517 328.328 308.643 328.935 307.793C331.146 304.732 333.817 301.89 335.469 298.562C336.902 295.672 339.064 294.724 341.761 293.898C343.631 293.315 345.89 292.927 347.153 291.664C350.967 287.899 354.392 283.769 357.962 279.761C357.792 279.567 357.622 279.372 357.428 279.154C350.724 279.591 344.675 281.364 340.862 287.704C341.663 285.129 342.489 282.725 343.582 280.417C344.287 278.935 345.186 277.405 346.352 276.263C347.906 274.757 350.53 273.956 351.404 272.207C353.955 267.154 355.873 261.762 358.035 256.515C358.084 256.418 357.744 256.151 357.088 255.398C354.295 258.167 351.453 260.766 348.853 263.559C345.598 267.057 342.538 270.701 344.165 276.045C344.262 276.385 344.044 276.895 343.85 277.283C340.692 283.988 337.583 290.741 334.279 297.396C333.235 299.485 331.631 301.283 330.271 303.202C329.882 303.056 329.518 302.91 329.129 302.764C334.862 295.38 333.745 287.461 331.753 279.13C327.745 282.287 324.004 285.324 324.15 290.619C324.247 293.534 324.806 296.522 325.68 299.315C327.235 304.246 327.38 308.594 322.911 312.238C319.729 314.837 316.765 317.703 313.899 320.278C314.288 313.258 314.676 306.262 315.065 298.902C306.539 304.538 303.236 316.634 308.191 324.529C300.879 327.759 293.641 330.966 286.426 334.172C286.499 334.367 286.596 334.561 286.669 334.755C289.293 334.026 291.989 333.468 294.539 332.472C295.973 331.913 296.653 332.278 297.697 333.152C299.252 334.464 300.928 335.751 302.798 336.553C308.992 339.225 314.968 337.379 320.846 335.168C322.547 334.537 324.15 333.638 325.802 332.861C325.826 332.69 325.777 332.423 325.704 332.18Z" fill="#121F34"/>
<path fill-rule="evenodd" clip-rule="evenodd" d="M217.271 332.18C224.145 331.257 230.412 327.274 238.404 328.585C237.724 327.93 237.481 327.589 237.165 327.371C232.72 324.262 228.129 321.322 223.854 317.995C221.862 316.44 219.894 315.93 217.659 316.586C212.218 318.165 207.093 317.509 202.138 314.91C199.223 313.379 195.871 312.481 193.66 309.299C201.215 307.38 208.453 305.874 215.546 310.586C215.158 309.517 214.647 308.643 214.04 307.793C211.83 304.732 209.158 301.89 207.506 298.562C206.073 295.672 203.911 294.724 201.215 293.898C199.344 293.315 197.085 292.927 195.822 291.664C192.009 287.899 188.584 283.769 185.013 279.761C185.183 279.567 185.353 279.372 185.547 279.154C192.251 279.591 198.3 281.364 202.113 287.704C201.312 285.129 200.486 282.725 199.393 280.417C198.688 278.935 197.79 277.405 196.624 276.263C195.069 274.757 192.446 273.956 191.571 272.207C189.021 267.154 187.102 261.762 184.94 256.515C184.891 256.418 185.231 256.151 185.887 255.398C188.681 258.167 191.523 260.766 194.122 263.559C197.377 267.057 200.437 270.701 198.81 276.045C198.713 276.385 198.931 276.895 199.126 277.283C202.284 283.988 205.393 290.741 208.696 297.396C209.741 299.485 211.344 301.283 212.704 303.202C213.093 303.056 213.457 302.91 213.846 302.764C208.113 295.38 209.231 287.461 211.222 279.13C215.23 282.287 218.971 285.324 218.825 290.619C218.728 293.534 218.17 296.522 217.295 299.315C215.741 304.246 215.595 308.594 220.064 312.238C223.246 314.837 226.21 317.703 229.076 320.278C228.687 313.258 228.299 306.262 227.91 298.902C236.436 304.538 239.74 316.634 234.784 324.529C242.096 327.759 249.335 330.966 256.549 334.172C256.476 334.367 256.379 334.561 256.306 334.755C253.683 334.026 250.986 333.468 248.436 332.472C247.003 331.913 246.322 332.278 245.278 333.152C243.723 334.464 242.047 335.751 240.177 336.553C233.983 339.225 228.007 337.379 222.129 335.168C220.429 334.537 218.825 333.638 217.174 332.861C217.174 332.69 217.222 332.423 217.271 332.18Z" fill="#121F34"/>
<path fill-rule="evenodd" clip-rule="evenodd" d="M271.682 327.298C272.872 328.294 273.892 329.606 274.985 330.723C276.54 330.869 278.07 330.82 279.601 331.136C279.576 332.69 279.188 334.294 278.993 335.873C279.868 337.184 280.839 338.326 281.544 339.759C280.524 340.536 278.702 341.484 277.463 342.237C276.977 343.718 276.686 345.224 276.03 346.658C274.524 346.293 273.042 345.54 271.56 345.006C270.103 345.564 268.743 346.245 267.212 346.633C266.557 345.224 266.216 343.597 265.706 342.115C264.37 341.314 262.986 340.682 261.723 339.735C262.427 338.35 263.472 337.063 264.322 335.751C264.127 334.245 263.739 332.666 263.715 331.16C265.245 330.844 266.897 330.869 268.451 330.699C269.569 329.508 270.467 328.294 271.682 327.298Z" fill="#121F34"/>
<path fill-rule="evenodd" clip-rule="evenodd" d="M247.464 345.734C251.642 343.329 255.844 340.9 260.022 338.496C259.391 339.516 258.929 340.56 259.099 341.289C259.415 342.722 262.257 344.083 263.739 344.884C264.03 345.88 264.419 347.459 264.978 348.673C261.018 350.957 257.059 353.24 253.124 355.523C254.363 352.633 255.601 349.742 256.865 346.852C253.731 346.463 250.598 346.099 247.464 345.734Z" fill="#121F34"/>
<path fill-rule="evenodd" clip-rule="evenodd" d="M296.604 345.735C292.402 343.306 288.2 340.876 283.997 338.447C284.653 339.492 285.139 340.585 284.969 341.338C284.653 342.747 281.738 344.156 280.257 345.006C279.965 345.977 279.601 347.484 279.091 348.649C283.05 350.933 287.009 353.216 290.969 355.499C289.73 352.609 288.491 349.718 287.228 346.828C290.361 346.463 293.471 346.099 296.604 345.735Z" fill="#121F34"/>
<path d="M289.05 265.09C291.236 263.584 293.665 262.272 296.191 261.422C300.588 259.964 305.082 258.774 309.6 257.73C333.235 252.191 347.396 234.046 346.011 210.144C342.149 222.192 334.789 230.548 323.931 235.552C318.733 237.957 313.146 239.463 307.851 241.649C302.24 243.957 296.653 246.337 291.09 248.766C290.046 249.228 288.831 249.204 287.787 248.742C287.787 248.742 283.924 246.58 283.56 245.657L276.346 227.269L281.374 225.253L272.896 220.468L268.694 222.532L262.524 244.807C262.16 246.143 258.735 248.329 258.735 248.329C257.496 248.888 256.063 248.864 254.824 248.305C254.63 248.208 254.46 248.135 254.29 248.062C247.683 245.22 240.809 242.961 233.959 240.775C218.242 235.722 204.543 228.386 198.421 211.334C198.688 213.01 198.81 214.711 199.223 216.338C200.68 222.241 201.725 228.338 203.862 233.998C209.255 248.305 220.963 254.572 235.1 257.827C241.464 259.284 248.023 260.985 253.755 263.972C265.658 270.215 266.411 282.458 255.942 290.814C252.687 293.388 249.14 295.575 245.569 298.028C246.274 298.538 246.954 299.048 247.658 299.485C255.164 304.343 255.31 304.465 260.921 297.202C263.52 293.85 265.439 289.988 267.65 286.368C268.014 286.563 267.868 286.49 268.233 286.66C265.342 293.461 262.451 300.238 259.464 307.283C263.302 309.785 267.164 312.359 271.075 314.813C271.658 315.177 272.824 315.299 273.358 314.983C277.463 312.432 281.495 309.76 285.479 307.137C283.754 303.493 282.176 300.311 280.791 297.056C279.406 293.801 278.216 290.473 276.613 286.344C280.038 291.299 282.564 295.647 285.771 299.437C289.851 304.246 290.07 304.052 295.268 300.651C296.58 299.801 297.916 298.951 299.155 298.125C295.098 295.162 290.847 292.635 287.277 289.38C278.993 281.826 279.819 271.502 289.05 265.09Z" fill="#121F34"/>
<path d="M251.618 275.365C256.257 277.405 257.18 280.417 256.039 285.761C261.966 278.717 261.115 272.328 253.901 267.883C251.739 266.547 249.383 265.405 246.954 264.652C242.193 263.146 237.286 262.102 232.525 260.62C220.186 256.806 208.891 251.462 202.259 239.05C202.016 243.981 203.765 248.037 206.267 251.851C212.947 262.005 223.003 266.717 234.396 269.559C240.226 271.041 246.08 272.935 251.618 275.365Z" fill="#121F34"/>
<path d="M330.271 252.483C323.105 257.389 314.992 259.964 306.685 262.199C301.195 263.681 295.608 265.454 290.629 268.126C283.657 271.867 282.904 278.765 288.321 284.959C287.277 278.376 291.309 275.486 296.24 273.761C301.875 271.794 307.656 270.263 313.438 268.733C324.247 265.867 333.259 260.474 339.234 250.734C341.858 246.459 342.829 242.523 341.979 239.026C339.963 245.414 335.226 249.082 330.271 252.483Z" fill="#121F34"/>
<path d="M254.266 286.83C254.533 282.676 253.27 279.542 250.233 277.866C246.638 275.899 242.703 274.441 238.792 273.227C231.772 271.041 224.097 270.798 217.489 265.162C219.821 270.482 222.931 274.077 227.4 275.972C231.408 277.672 235.732 278.668 239.934 279.858C244.987 281.243 250.719 281.146 254.266 286.83Z" fill="#121F34"/>
<path d="M297.114 276.239C292.912 277.939 290.24 281.219 290.483 285.421C293.155 284.085 295.876 282.312 298.863 281.316C302.191 280.198 305.762 279.81 309.211 278.984C316.96 277.138 323.591 273.737 326.555 266.863C321.867 268.393 316.668 270.142 311.422 271.794C306.661 273.3 301.73 274.369 297.114 276.239Z" fill="#121F34"/>
<path d="M277.124 164.478L271.488 147.158L265.877 164.478H247.683L262.404 175.165L256.768 192.485L271.488 181.797L286.208 192.485L280.597 175.165L295.317 164.478H277.124Z" fill="#121F34"/>
<path d="M295.317 164.478H277.123L271.488 147.183L265.852 164.478H247.659L262.379 175.166L256.743 192.485L271.463 181.798L286.184 192.485L280.572 175.166L295.317 164.478ZM283.317 188.502L271.488 179.903V172.227L259.658 188.502L264.176 174.583L271.488 172.203L252.371 165.984H266.994L271.512 172.203V152.09L276.03 165.984L271.512 172.203L290.653 165.984L278.823 174.583L271.512 172.203L283.317 188.502Z" fill="#DCDDDD"/>
<path d="M218.364 195.57C218.34 195.011 219.19 195.035 219.214 195.57C219.311 197.926 219.554 200.525 219.141 202.905C221.352 199.748 221.182 192.995 218.583 189.108C218.583 189.108 215.012 195.958 218.267 202.93C218.704 200.549 218.461 197.926 218.364 195.57Z" fill="#121F34"/>
<path d="M225.19 188.137C225.287 187.603 226.088 187.821 226.015 188.356C225.651 190.687 225.36 193.262 224.485 195.497C227.279 192.849 228.445 186.194 226.696 181.87C226.696 181.87 221.813 187.894 223.635 195.351C224.534 193.141 224.825 190.493 225.19 188.137Z" fill="#121F34"/>
<path d="M237.141 175.578C237.141 175.578 230.631 179.756 229.999 187.408C231.554 185.586 232.647 183.157 233.74 181.068C233.983 180.582 234.736 181.019 234.469 181.505C233.376 183.594 232.307 185.975 230.776 187.821C234.25 186.193 237.456 180.242 237.141 175.578Z" fill="#121F34"/>
<path d="M236.047 186.072C238.088 184.809 239.861 182.866 241.561 181.214C241.95 180.825 242.557 181.433 242.169 181.821C240.493 183.473 238.719 185.416 236.679 186.704C240.517 186.218 245.399 181.578 246.541 177.036C246.517 177.036 239.011 178.979 236.047 186.072Z" fill="#121F34"/>
<path d="M229.708 191.149C232.112 191.076 234.614 190.274 236.898 189.667C237.432 189.521 237.651 190.347 237.116 190.493C234.833 191.1 232.331 191.877 229.926 191.999C233.473 193.481 240.055 191.877 243.286 188.525C243.262 188.501 235.805 186.461 229.708 191.149Z" fill="#121F34"/>
<path d="M224.655 198.897C226.987 198.387 229.295 197.173 231.432 196.177C231.918 195.958 232.355 196.687 231.869 196.905C229.708 197.901 227.376 199.14 225.02 199.674C228.785 200.525 234.954 197.756 237.554 193.893C237.554 193.918 229.829 193.237 224.655 198.897Z" fill="#121F34"/>
<path d="M219.7 204.387C222.105 204.338 224.607 203.61 226.914 203.027C227.449 202.905 227.667 203.707 227.133 203.853C224.825 204.411 222.299 205.164 219.894 205.237C223.416 206.792 230.023 205.286 233.327 201.982C233.327 202.007 225.894 199.82 219.7 204.387Z" fill="#121F34"/>
<path d="M211.781 202.128C211.757 201.569 212.607 201.594 212.631 202.128C212.728 204.484 212.971 207.083 212.558 209.464C214.769 206.306 214.599 199.553 212 195.667C212 195.667 208.429 202.517 211.684 209.488C212.146 207.132 211.903 204.484 211.781 202.128Z" fill="#121F34"/>
<path d="M213.141 210.97C215.546 210.921 218.048 210.192 220.356 209.609C220.89 209.488 221.109 210.29 220.574 210.435C218.267 210.994 215.741 211.747 213.336 211.82C216.858 213.375 223.465 211.869 226.768 208.565C226.768 208.565 219.336 206.403 213.141 210.97Z" fill="#121F34"/>
<path d="M324.636 195.57C324.66 195.011 323.81 195.035 323.785 195.57C323.688 197.926 323.445 200.525 323.858 202.905C321.648 199.748 321.818 192.995 324.417 189.108C324.417 189.108 327.988 195.958 324.733 202.93C324.271 200.549 324.514 197.926 324.636 195.57Z" fill="#121F34"/>
<path d="M317.81 188.137C317.713 187.602 316.911 187.821 316.984 188.356C317.348 190.687 317.64 193.262 318.514 195.497C315.721 192.849 314.555 186.194 316.304 181.87C316.304 181.87 321.186 187.894 319.364 195.351C318.441 193.141 318.174 190.493 317.81 188.137Z" fill="#121F34"/>
<path d="M305.859 175.578C305.859 175.578 312.369 179.756 313 187.408C311.446 185.586 310.353 183.157 309.26 181.068C309.017 180.582 308.264 181.019 308.531 181.505C309.624 183.594 310.693 185.975 312.223 187.821C308.725 186.193 305.543 180.242 305.859 175.578Z" fill="#121F34"/>
<path d="M306.952 186.072C304.912 184.809 303.138 182.866 301.438 181.214C301.049 180.825 300.442 181.432 300.831 181.821C302.507 183.473 304.28 185.416 306.32 186.704C302.482 186.218 297.6 181.578 296.458 177.036C296.483 177.036 303.964 178.979 306.952 186.072Z" fill="#121F34"/>
<path d="M313.292 191.149C310.887 191.076 308.385 190.274 306.102 189.667C305.567 189.521 305.349 190.347 305.883 190.493C308.166 191.1 310.668 191.877 313.073 191.999C309.527 193.481 302.944 191.877 299.713 188.525C299.713 188.501 307.171 186.461 313.292 191.149Z" fill="#121F34"/>
<path d="M318.344 198.897C316.012 198.387 313.705 197.172 311.567 196.177C311.081 195.958 310.644 196.687 311.13 196.905C313.292 197.901 315.624 199.14 317.98 199.674C314.215 200.525 308.045 197.755 305.446 193.893C305.446 193.918 313.146 193.237 318.344 198.897Z" fill="#121F34"/>
<path d="M323.275 204.387C320.87 204.338 318.369 203.61 316.061 203.027C315.527 202.905 315.308 203.707 315.842 203.853C318.15 204.411 320.676 205.164 323.081 205.237C319.559 206.792 312.952 205.286 309.648 201.982C309.672 202.006 317.081 199.82 323.275 204.387Z" fill="#121F34"/>
<path d="M331.194 202.128C331.218 201.569 330.368 201.594 330.344 202.128C330.247 204.484 330.004 207.083 330.417 209.464C328.206 206.306 328.376 199.553 330.975 195.667C330.975 195.667 334.546 202.517 331.291 209.488C330.854 207.132 331.097 204.484 331.194 202.128Z" fill="#121F34"/>
<path d="M329.858 210.97C327.453 210.921 324.951 210.192 322.644 209.609C322.109 209.488 321.891 210.29 322.425 210.435C324.733 210.994 327.259 211.747 329.664 211.82C326.142 213.374 319.535 211.868 316.231 208.565C316.231 208.565 323.664 206.403 329.858 210.97Z" fill="#121F34"/>
</g>
</svg>
