<svg width="180" height="42" viewBox="0 0 180 42" fill="none" xmlns="http://www.w3.org/2000/svg">
<path d="M16.92 0.231997C12.664 0.231997 9.136 1.184 6.336 3.088C3.368 5.104 1.912 7.848 1.912 11.376C1.912 14.848 3.424 17.536 6.504 19.384C7.736 20.056 10.76 21.12 15.688 22.688C20.112 24.032 22.744 24.928 23.64 25.376C26.16 26.664 27.448 28.4 27.448 30.64C27.448 32.432 26.552 33.832 24.76 34.84C22.968 35.848 20.56 36.408 17.536 36.408C14.176 36.408 11.712 35.792 10.088 34.56C8.296 33.216 7.176 30.92 6.728 27.784H0.68C1.016 32.824 2.808 36.52 6.112 38.872C8.856 40.776 12.664 41.784 17.536 41.784C22.576 41.784 26.496 40.776 29.296 38.76C32.096 36.688 33.496 33.888 33.496 30.304C33.496 26.608 31.76 23.752 28.344 21.68C26.776 20.728 23.248 19.44 17.872 17.76C14.12 16.64 11.824 15.8 10.928 15.296C8.912 14.232 7.96 12.832 7.96 11.04C7.96 9.024 8.8 7.568 10.536 6.672C11.936 5.888 13.952 5.496 16.584 5.496C19.608 5.496 21.848 6.056 23.416 7.232C24.984 8.352 25.992 10.256 26.552 12.832H32.6C32.208 8.464 30.64 5.272 27.84 3.2C25.208 1.184 21.568 0.231997 16.92 0.231997ZM115.55 11.264C113.758 11.264 112.19 11.768 110.846 12.888C109.726 13.672 108.774 14.848 108.046 16.416V12.048H102.11V41H108.046V25.656C108.046 23.136 108.774 21.064 110.286 19.496C111.686 18.04 113.31 17.312 115.102 17.312C116.446 17.312 117.846 17.48 119.302 17.928V11.992C118.294 11.488 117.006 11.264 115.55 11.264Z" fill="#3971FF"/>
<path d="M50.8818 11.264C46.6258 11.264 43.2098 12.72 40.7458 15.688C38.1698 18.6 36.9378 22.184 36.9378 26.496C36.9378 31.256 38.2818 35.008 40.9698 37.808C43.4338 40.44 46.8498 41.784 51.1058 41.784C54.9698 41.784 58.1618 40.664 60.6818 38.48C62.6978 36.688 63.9858 34.392 64.6578 31.704H58.7218C57.9378 33.384 57.0978 34.672 56.0898 35.456C54.8018 36.408 53.1218 36.912 51.0498 36.912C48.6978 36.912 46.8498 36.128 45.5058 34.672C44.1618 33.16 43.4338 30.976 43.2098 28.176H65.1618C65.1058 23.024 63.9298 18.992 61.6898 16.08C59.2258 12.832 55.5858 11.264 50.8818 11.264ZM51.0498 16.136C55.7538 16.136 58.3858 18.656 58.9458 23.696H43.3218C43.6578 21.232 44.4978 19.384 45.7298 18.096C47.0738 16.752 48.8098 16.136 51.0498 16.136Z" fill="#FE4026"/>
<path d="M83.2752 11.264C79.6912 11.264 76.7792 11.88 74.6512 13.224C72.1872 14.68 70.6192 17.032 70.0032 20.168L75.8832 20.672C76.2192 19.048 77.0592 17.872 78.4032 17.088C79.5232 16.416 81.0352 16.08 82.8832 16.08C87.2512 16.08 89.4352 18.096 89.4352 22.128V23.304L82.9392 23.472C78.6832 23.584 75.3232 24.424 72.9712 26.104C70.3952 27.84 69.1072 30.36 69.1072 33.608C69.1072 36.016 70.0032 37.976 71.8512 39.488C73.5312 41 75.8832 41.784 78.9072 41.784C81.4832 41.784 83.7232 41.28 85.6272 40.384C87.3072 39.544 88.7072 38.368 89.8272 36.912V41H95.3152V22.52C95.3152 18.992 94.4192 16.304 92.6832 14.456C90.6672 12.328 87.5312 11.264 83.2752 11.264ZM89.4352 27.616V29.296C89.4352 31.536 88.4832 33.44 86.6912 34.952C84.8992 36.464 82.7712 37.248 80.2512 37.248C78.7392 37.248 77.5072 36.856 76.6112 36.128C75.6592 35.4 75.2112 34.504 75.2112 33.384C75.2112 29.8 77.8992 27.896 83.3312 27.784L89.4352 27.616Z" fill="#EDBD12"/>
<path d="M135.826 11.264C131.346 11.264 127.874 12.776 125.354 15.8C123.002 18.6 121.826 22.184 121.826 26.552C121.826 31.032 123.002 34.616 125.41 37.416C127.874 40.328 131.29 41.784 135.714 41.784C139.41 41.784 142.434 40.832 144.674 38.984C146.914 37.08 148.426 34.168 149.098 30.304H143.218C142.658 34.672 140.194 36.912 135.77 36.912C133.194 36.912 131.29 35.96 130.002 34.168C128.602 32.32 127.93 29.744 127.93 26.496C127.93 23.248 128.602 20.672 130.058 18.88C131.458 17.032 133.362 16.136 135.826 16.136C137.842 16.136 139.466 16.584 140.698 17.536C141.93 18.432 142.714 19.888 143.106 21.848H148.986C148.426 18.264 146.97 15.576 144.73 13.784C142.49 12.104 139.522 11.264 135.826 11.264Z" fill="#30B12D"/>
<path d="M154.173 0.231997V41H160.109V24.76C160.109 22.24 160.725 20.168 162.013 18.544C163.245 16.92 164.869 16.136 166.885 16.136C169.125 16.136 170.861 16.808 171.981 18.208C172.989 19.552 173.549 21.456 173.549 24.032V41H179.485V23.024C179.485 19.216 178.645 16.304 176.965 14.344C175.173 12.272 172.541 11.264 169.069 11.264C167.221 11.264 165.596 11.6 164.141 12.384C162.517 13.168 161.173 14.456 160.109 16.136V0.231997H154.173Z" fill="#FF1818" fill-opacity="0.87"/>
</svg>
